<svg width="1748" height="866" viewBox="0 0 1748 866" fill="none" xmlns="http://www.w3.org/2000/svg">
<g filter="url(#filter0_d_1731_31)">
<rect x="17.8379" y="14.3682" width="1712.4" height="829.776" rx="10" fill="#FDBC6C" stroke="#F4DDB2" stroke-width="15"/>
<g filter="url(#filter1_d_1731_31)">
<path d="M262.467 247.467C267.787 247.467 272.384 248.47 276.257 250.477C280.177 252.437 283.164 255.26 285.217 258.947C287.317 262.634 288.367 266.974 288.367 271.967C288.367 276.96 287.317 281.3 285.217 284.987C283.164 288.627 280.177 291.427 276.257 293.387C272.384 295.3 267.787 296.257 262.467 296.257H247.277V247.467H262.467ZM262.467 291.007C268.767 291.007 273.574 289.35 276.887 286.037C280.201 282.677 281.857 277.987 281.857 271.967C281.857 265.9 280.177 261.164 276.817 257.757C273.504 254.35 268.721 252.647 262.467 252.647H253.647V291.007H262.467ZM331.769 275.607C331.769 276.82 331.699 278.104 331.559 279.457H300.899C301.133 283.237 302.416 286.2 304.749 288.347C307.129 290.447 309.999 291.497 313.359 291.497C316.113 291.497 318.399 290.867 320.219 289.607C322.086 288.3 323.393 286.574 324.139 284.427H330.999C329.973 288.114 327.919 291.124 324.839 293.457C321.759 295.744 317.933 296.887 313.359 296.887C309.719 296.887 306.453 296.07 303.559 294.437C300.713 292.804 298.473 290.494 296.839 287.507C295.206 284.474 294.389 280.974 294.389 277.007C294.389 273.04 295.183 269.564 296.769 266.577C298.356 263.59 300.573 261.304 303.419 259.717C306.313 258.084 309.626 257.267 313.359 257.267C316.999 257.267 320.219 258.06 323.019 259.647C325.819 261.234 327.966 263.427 329.459 266.227C330.999 268.98 331.769 272.107 331.769 275.607ZM325.189 274.277C325.189 271.85 324.653 269.774 323.579 268.047C322.506 266.274 321.036 264.944 319.169 264.057C317.349 263.124 315.319 262.657 313.079 262.657C309.859 262.657 307.106 263.684 304.819 265.737C302.579 267.79 301.296 270.637 300.969 274.277H325.189ZM353.758 296.887C350.818 296.887 348.181 296.397 345.848 295.417C343.514 294.39 341.671 292.99 340.318 291.217C338.964 289.397 338.218 287.32 338.078 284.987H344.658C344.844 286.9 345.731 288.464 347.318 289.677C348.951 290.89 351.074 291.497 353.688 291.497C356.114 291.497 358.028 290.96 359.428 289.887C360.828 288.814 361.528 287.46 361.528 285.827C361.528 284.147 360.781 282.91 359.288 282.117C357.794 281.277 355.484 280.46 352.358 279.667C349.511 278.92 347.178 278.174 345.358 277.427C343.584 276.634 342.044 275.49 340.738 273.997C339.478 272.457 338.848 270.45 338.848 267.977C338.848 266.017 339.431 264.22 340.598 262.587C341.764 260.954 343.421 259.67 345.568 258.737C347.714 257.757 350.164 257.267 352.918 257.267C357.164 257.267 360.594 258.34 363.208 260.487C365.821 262.634 367.221 265.574 367.408 269.307H361.038C360.898 267.3 360.081 265.69 358.588 264.477C357.141 263.264 355.181 262.657 352.708 262.657C350.421 262.657 348.601 263.147 347.248 264.127C345.894 265.107 345.218 266.39 345.218 267.977C345.218 269.237 345.614 270.287 346.408 271.127C347.248 271.92 348.274 272.574 349.488 273.087C350.748 273.554 352.474 274.09 354.668 274.697C357.421 275.444 359.661 276.19 361.388 276.937C363.114 277.637 364.584 278.71 365.798 280.157C367.058 281.604 367.711 283.494 367.758 285.827C367.758 287.927 367.174 289.817 366.008 291.497C364.841 293.177 363.184 294.507 361.038 295.487C358.938 296.42 356.511 296.887 353.758 296.887ZM374.37 276.937C374.37 273.017 375.163 269.587 376.75 266.647C378.337 263.66 380.507 261.35 383.26 259.717C386.06 258.084 389.187 257.267 392.64 257.267C395.627 257.267 398.403 257.967 400.97 259.367C403.537 260.72 405.497 262.517 406.85 264.757V244.457H413.29V296.257H406.85V289.047C405.59 291.334 403.723 293.224 401.25 294.717C398.777 296.164 395.883 296.887 392.57 296.887C389.163 296.887 386.06 296.047 383.26 294.367C380.507 292.687 378.337 290.33 376.75 287.297C375.163 284.264 374.37 280.81 374.37 276.937ZM406.85 277.007C406.85 274.114 406.267 271.594 405.1 269.447C403.933 267.3 402.347 265.667 400.34 264.547C398.38 263.38 396.21 262.797 393.83 262.797C391.45 262.797 389.28 263.357 387.32 264.477C385.36 265.597 383.797 267.23 382.63 269.377C381.463 271.524 380.88 274.044 380.88 276.937C380.88 279.877 381.463 282.444 382.63 284.637C383.797 286.784 385.36 288.44 387.32 289.607C389.28 290.727 391.45 291.287 393.83 291.287C396.21 291.287 398.38 290.727 400.34 289.607C402.347 288.44 403.933 286.784 405.1 284.637C406.267 282.444 406.85 279.9 406.85 277.007ZM459.055 275.607C459.055 276.82 458.985 278.104 458.845 279.457H428.185C428.418 283.237 429.701 286.2 432.035 288.347C434.415 290.447 437.285 291.497 440.645 291.497C443.398 291.497 445.685 290.867 447.505 289.607C449.371 288.3 450.678 286.574 451.425 284.427H458.285C457.258 288.114 455.205 291.124 452.125 293.457C449.045 295.744 445.218 296.887 440.645 296.887C437.005 296.887 433.738 296.07 430.845 294.437C427.998 292.804 425.758 290.494 424.125 287.507C422.491 284.474 421.675 280.974 421.675 277.007C421.675 273.04 422.468 269.564 424.055 266.577C425.641 263.59 427.858 261.304 430.705 259.717C433.598 258.084 436.911 257.267 440.645 257.267C444.285 257.267 447.505 258.06 450.305 259.647C453.105 261.234 455.251 263.427 456.745 266.227C458.285 268.98 459.055 272.107 459.055 275.607ZM452.475 274.277C452.475 271.85 451.938 269.774 450.865 268.047C449.791 266.274 448.321 264.944 446.455 264.057C444.635 263.124 442.605 262.657 440.365 262.657C437.145 262.657 434.391 263.684 432.105 265.737C429.865 267.79 428.581 270.637 428.255 274.277H452.475ZM521.125 275.607C521.125 276.82 521.055 278.104 520.915 279.457H490.255C490.488 283.237 491.772 286.2 494.105 288.347C496.485 290.447 499.355 291.497 502.715 291.497C505.468 291.497 507.755 290.867 509.575 289.607C511.442 288.3 512.748 286.574 513.495 284.427H520.355C519.328 288.114 517.275 291.124 514.195 293.457C511.115 295.744 507.288 296.887 502.715 296.887C499.075 296.887 495.808 296.07 492.915 294.437C490.068 292.804 487.828 290.494 486.195 287.507C484.562 284.474 483.745 280.974 483.745 277.007C483.745 273.04 484.538 269.564 486.125 266.577C487.712 263.59 489.928 261.304 492.775 259.717C495.668 258.084 498.982 257.267 502.715 257.267C506.355 257.267 509.575 258.06 512.375 259.647C515.175 261.234 517.322 263.427 518.815 266.227C520.355 268.98 521.125 272.107 521.125 275.607ZM514.545 274.277C514.545 271.85 514.008 269.774 512.935 268.047C511.862 266.274 510.392 264.944 508.525 264.057C506.705 263.124 504.675 262.657 502.435 262.657C499.215 262.657 496.462 263.684 494.175 265.737C491.935 267.79 490.652 270.637 490.325 274.277H514.545ZM535.903 244.457V296.257H529.533V244.457H535.903ZM563.042 276.937C563.042 273.017 563.835 269.587 565.422 266.647C567.008 263.66 569.178 261.35 571.932 259.717C574.732 258.084 577.835 257.267 581.242 257.267C584.602 257.267 587.518 257.99 589.992 259.437C592.465 260.884 594.308 262.704 595.522 264.897V257.897H601.962V296.257H595.522V289.117C594.262 291.357 592.372 293.224 589.852 294.717C587.378 296.164 584.485 296.887 581.172 296.887C577.765 296.887 574.685 296.047 571.932 294.367C569.178 292.687 567.008 290.33 565.422 287.297C563.835 284.264 563.042 280.81 563.042 276.937ZM595.522 277.007C595.522 274.114 594.938 271.594 593.772 269.447C592.605 267.3 591.018 265.667 589.012 264.547C587.052 263.38 584.882 262.797 582.502 262.797C580.122 262.797 577.952 263.357 575.992 264.477C574.032 265.597 572.468 267.23 571.302 269.377C570.135 271.524 569.552 274.044 569.552 276.937C569.552 279.877 570.135 282.444 571.302 284.637C572.468 286.784 574.032 288.44 575.992 289.607C577.952 290.727 580.122 291.287 582.502 291.287C584.882 291.287 587.052 290.727 589.012 289.607C591.018 288.44 592.605 286.784 593.772 284.637C594.938 282.444 595.522 279.9 595.522 277.007ZM631.416 257.197C636.083 257.197 639.863 258.62 642.756 261.467C645.65 264.267 647.096 268.327 647.096 273.647V296.257H640.796V274.557C640.796 270.73 639.84 267.814 637.926 265.807C636.013 263.754 633.4 262.727 630.086 262.727C626.726 262.727 624.043 263.777 622.036 265.877C620.076 267.977 619.096 271.034 619.096 275.047V296.257H612.726V257.897H619.096V263.357C620.356 261.397 622.06 259.88 624.206 258.807C626.4 257.734 628.803 257.197 631.416 257.197ZM619.586 253.767C619.913 251.387 620.683 249.567 621.896 248.307C623.156 247.047 624.72 246.417 626.586 246.417C627.473 246.417 628.22 246.58 628.826 246.907C629.48 247.187 630.25 247.607 631.136 248.167C631.79 248.633 632.373 249.007 632.886 249.287C633.4 249.52 633.96 249.637 634.566 249.637C635.36 249.637 636.036 249.38 636.596 248.867C637.156 248.354 637.506 247.607 637.646 246.627H641.286C641.006 248.96 640.236 250.757 638.976 252.017C637.716 253.277 636.153 253.907 634.286 253.907C633.4 253.907 632.606 253.767 631.906 253.487C631.253 253.16 630.506 252.694 629.666 252.087C628.92 251.62 628.313 251.27 627.846 251.037C627.426 250.804 626.913 250.687 626.306 250.687C625.513 250.687 624.836 250.944 624.276 251.457C623.763 251.97 623.436 252.74 623.296 253.767H619.586ZM674.232 296.887C670.638 296.887 667.372 296.07 664.432 294.437C661.538 292.804 659.252 290.494 657.572 287.507C655.938 284.474 655.122 280.974 655.122 277.007C655.122 273.087 655.962 269.634 657.642 266.647C659.368 263.614 661.702 261.304 664.642 259.717C667.582 258.084 670.872 257.267 674.512 257.267C678.152 257.267 681.442 258.084 684.382 259.717C687.322 261.304 689.632 263.59 691.312 266.577C693.038 269.564 693.902 273.04 693.902 277.007C693.902 280.974 693.015 284.474 691.242 287.507C689.515 290.494 687.158 292.804 684.172 294.437C681.185 296.07 677.872 296.887 674.232 296.887ZM674.232 291.287C676.518 291.287 678.665 290.75 680.672 289.677C682.678 288.604 684.288 286.994 685.502 284.847C686.762 282.7 687.392 280.087 687.392 277.007C687.392 273.927 686.785 271.314 685.572 269.167C684.358 267.02 682.772 265.434 680.812 264.407C678.852 263.334 676.728 262.797 674.442 262.797C672.108 262.797 669.962 263.334 668.002 264.407C666.088 265.434 664.548 267.02 663.382 269.167C662.215 271.314 661.632 273.927 661.632 277.007C661.632 280.134 662.192 282.77 663.312 284.917C664.478 287.064 666.018 288.674 667.932 289.747C669.845 290.774 671.945 291.287 674.232 291.287ZM719.119 291.147C725.046 286.387 729.689 282.49 733.049 279.457C736.409 276.377 739.233 273.18 741.519 269.867C743.853 266.507 745.019 263.217 745.019 259.997C745.019 256.964 744.273 254.584 742.779 252.857C741.333 251.084 738.976 250.197 735.709 250.197C732.536 250.197 730.063 251.2 728.289 253.207C726.563 255.167 725.629 257.804 725.489 261.117H719.329C719.516 255.89 721.103 251.854 724.089 249.007C727.076 246.16 730.926 244.737 735.639 244.737C740.446 244.737 744.249 246.067 747.049 248.727C749.896 251.387 751.319 255.05 751.319 259.717C751.319 263.59 750.153 267.37 747.819 271.057C745.533 274.697 742.919 277.917 739.979 280.717C737.039 283.47 733.283 286.69 728.709 290.377H752.789V295.697H719.119V291.147ZM760.153 270.427C760.153 262.4 761.46 256.147 764.073 251.667C766.686 247.14 771.26 244.877 777.793 244.877C784.28 244.877 788.83 247.14 791.443 251.667C794.056 256.147 795.363 262.4 795.363 270.427C795.363 278.594 794.056 284.94 791.443 289.467C788.83 293.994 784.28 296.257 777.793 296.257C771.26 296.257 766.686 293.994 764.073 289.467C761.46 284.94 760.153 278.594 760.153 270.427ZM789.063 270.427C789.063 266.367 788.783 262.937 788.223 260.137C787.71 257.29 786.613 255.004 784.933 253.277C783.3 251.55 780.92 250.687 777.793 250.687C774.62 250.687 772.193 251.55 770.513 253.277C768.88 255.004 767.783 257.29 767.223 260.137C766.71 262.937 766.453 266.367 766.453 270.427C766.453 274.627 766.71 278.15 767.223 280.997C767.783 283.844 768.88 286.13 770.513 287.857C772.193 289.584 774.62 290.447 777.793 290.447C780.92 290.447 783.3 289.584 784.933 287.857C786.613 286.13 787.71 283.844 788.223 280.997C788.783 278.15 789.063 274.627 789.063 270.427ZM804.108 270.427C804.108 262.4 805.415 256.147 808.028 251.667C810.641 247.14 815.215 244.877 821.748 244.877C828.235 244.877 832.785 247.14 835.398 251.667C838.011 256.147 839.318 262.4 839.318 270.427C839.318 278.594 838.011 284.94 835.398 289.467C832.785 293.994 828.235 296.257 821.748 296.257C815.215 296.257 810.641 293.994 808.028 289.467C805.415 284.94 804.108 278.594 804.108 270.427ZM833.018 270.427C833.018 266.367 832.738 262.937 832.178 260.137C831.665 257.29 830.568 255.004 828.888 253.277C827.255 251.55 824.875 250.687 821.748 250.687C818.575 250.687 816.148 251.55 814.468 253.277C812.835 255.004 811.738 257.29 811.178 260.137C810.665 262.937 810.408 266.367 810.408 270.427C810.408 274.627 810.665 278.15 811.178 280.997C811.738 283.844 812.835 286.13 814.468 287.857C816.148 289.584 818.575 290.447 821.748 290.447C824.875 290.447 827.255 289.584 828.888 287.857C830.568 286.13 831.665 283.844 832.178 280.997C832.738 278.15 833.018 274.627 833.018 270.427ZM846.523 284.987V280.157L871.093 246.137H878.723V279.457H885.723V284.987H878.723V296.257H872.423V284.987H846.523ZM872.703 252.787L853.873 279.457H872.703V252.787ZM899.717 287.437L891.877 306.267H887.607L892.717 287.437H899.717ZM928.966 251.667C927.752 251.667 926.726 251.247 925.886 250.407C925.046 249.567 924.626 248.54 924.626 247.327C924.626 246.114 925.046 245.087 925.886 244.247C926.726 243.407 927.752 242.987 928.966 242.987C930.132 242.987 931.112 243.407 931.906 244.247C932.746 245.087 933.166 246.114 933.166 247.327C933.166 248.54 932.746 249.567 931.906 250.407C931.112 251.247 930.132 251.667 928.966 251.667ZM932.046 257.897V296.257H925.676V257.897H932.046ZM989.032 257.197C992.019 257.197 994.679 257.827 997.012 259.087C999.346 260.3 1001.19 262.144 1002.54 264.617C1003.9 267.09 1004.57 270.1 1004.57 273.647V296.257H998.272V274.557C998.272 270.73 997.316 267.814 995.402 265.807C993.536 263.754 990.992 262.727 987.772 262.727C984.459 262.727 981.822 263.8 979.862 265.947C977.902 268.047 976.922 271.104 976.922 275.117V296.257H970.622V274.557C970.622 270.73 969.666 267.814 967.752 265.807C965.886 263.754 963.342 262.727 960.122 262.727C956.809 262.727 954.172 263.8 952.212 265.947C950.252 268.047 949.272 271.104 949.272 275.117V296.257H942.902V257.897H949.272V263.427C950.532 261.42 952.212 259.88 954.312 258.807C956.459 257.734 958.816 257.197 961.382 257.197C964.602 257.197 967.449 257.92 969.922 259.367C972.396 260.814 974.239 262.937 975.452 265.737C976.526 263.03 978.299 260.93 980.772 259.437C983.246 257.944 985.999 257.197 989.032 257.197ZM1021.39 264.967C1022.65 262.774 1024.52 260.954 1026.99 259.507C1029.51 258.013 1032.43 257.267 1035.74 257.267C1039.15 257.267 1042.23 258.084 1044.98 259.717C1047.78 261.35 1049.97 263.66 1051.56 266.647C1053.15 269.587 1053.94 273.017 1053.94 276.937C1053.94 280.81 1053.15 284.264 1051.56 287.297C1049.97 290.33 1047.78 292.687 1044.98 294.367C1042.23 296.047 1039.15 296.887 1035.74 296.887C1032.47 296.887 1029.58 296.164 1027.06 294.717C1024.59 293.224 1022.7 291.38 1021.39 289.187V314.457H1015.02V257.897H1021.39V264.967ZM1047.43 276.937C1047.43 274.044 1046.85 271.524 1045.68 269.377C1044.51 267.23 1042.93 265.597 1040.92 264.477C1038.96 263.357 1036.79 262.797 1034.41 262.797C1032.08 262.797 1029.91 263.38 1027.9 264.547C1025.94 265.667 1024.35 267.324 1023.14 269.517C1021.97 271.664 1021.39 274.16 1021.39 277.007C1021.39 279.9 1021.97 282.444 1023.14 284.637C1024.35 286.784 1025.94 288.44 1027.9 289.607C1029.91 290.727 1032.08 291.287 1034.41 291.287C1036.79 291.287 1038.96 290.727 1040.92 289.607C1042.93 288.44 1044.51 286.784 1045.68 284.637C1046.85 282.444 1047.43 279.877 1047.43 276.937ZM1068.7 244.457V296.257H1062.33V244.457H1068.7ZM1114.55 275.607C1114.55 276.82 1114.48 278.104 1114.34 279.457H1083.68C1083.92 283.237 1085.2 286.2 1087.53 288.347C1089.91 290.447 1092.78 291.497 1096.14 291.497C1098.9 291.497 1101.18 290.867 1103 289.607C1104.87 288.3 1106.18 286.574 1106.92 284.427H1113.78C1112.76 288.114 1110.7 291.124 1107.62 293.457C1104.54 295.744 1100.72 296.887 1096.14 296.887C1092.5 296.887 1089.24 296.07 1086.34 294.437C1083.5 292.804 1081.26 290.494 1079.62 287.507C1077.99 284.474 1077.17 280.974 1077.17 277.007C1077.17 273.04 1077.97 269.564 1079.55 266.577C1081.14 263.59 1083.36 261.304 1086.2 259.717C1089.1 258.084 1092.41 257.267 1096.14 257.267C1099.78 257.267 1103 258.06 1105.8 259.647C1108.6 261.234 1110.75 263.427 1112.24 266.227C1113.78 268.98 1114.55 272.107 1114.55 275.607ZM1107.97 274.277C1107.97 271.85 1107.44 269.774 1106.36 268.047C1105.29 266.274 1103.82 264.944 1101.95 264.057C1100.13 263.124 1098.1 262.657 1095.86 262.657C1092.64 262.657 1089.89 263.684 1087.6 265.737C1085.36 267.79 1084.08 270.637 1083.75 274.277H1107.97ZM1169.09 257.197C1172.08 257.197 1174.74 257.827 1177.07 259.087C1179.4 260.3 1181.25 262.144 1182.6 264.617C1183.95 267.09 1184.63 270.1 1184.63 273.647V296.257H1178.33V274.557C1178.33 270.73 1177.37 267.814 1175.46 265.807C1173.59 263.754 1171.05 262.727 1167.83 262.727C1164.52 262.727 1161.88 263.8 1159.92 265.947C1157.96 268.047 1156.98 271.104 1156.98 275.117V296.257H1150.68V274.557C1150.68 270.73 1149.72 267.814 1147.81 265.807C1145.94 263.754 1143.4 262.727 1140.18 262.727C1136.87 262.727 1134.23 263.8 1132.27 265.947C1130.31 268.047 1129.33 271.104 1129.33 275.117V296.257H1122.96V257.897H1129.33V263.427C1130.59 261.42 1132.27 259.88 1134.37 258.807C1136.52 257.734 1138.87 257.197 1141.44 257.197C1144.66 257.197 1147.51 257.92 1149.98 259.367C1152.45 260.814 1154.3 262.937 1155.51 265.737C1156.58 263.03 1158.36 260.93 1160.83 259.437C1163.3 257.944 1166.06 257.197 1169.09 257.197ZM1230.08 275.607C1230.08 276.82 1230.01 278.104 1229.87 279.457H1199.21C1199.44 283.237 1200.73 286.2 1203.06 288.347C1205.44 290.447 1208.31 291.497 1211.67 291.497C1214.42 291.497 1216.71 290.867 1218.53 289.607C1220.4 288.3 1221.7 286.574 1222.45 284.427H1229.31C1228.28 288.114 1226.23 291.124 1223.15 293.457C1220.07 295.744 1216.24 296.887 1211.67 296.887C1208.03 296.887 1204.76 296.07 1201.87 294.437C1199.02 292.804 1196.78 290.494 1195.15 287.507C1193.52 284.474 1192.7 280.974 1192.7 277.007C1192.7 273.04 1193.49 269.564 1195.08 266.577C1196.67 263.59 1198.88 261.304 1201.73 259.717C1204.62 258.084 1207.94 257.267 1211.67 257.267C1215.31 257.267 1218.53 258.06 1221.33 259.647C1224.13 261.234 1226.28 263.427 1227.77 266.227C1229.31 268.98 1230.08 272.107 1230.08 275.607ZM1223.5 274.277C1223.5 271.85 1222.96 269.774 1221.89 268.047C1220.82 266.274 1219.35 264.944 1217.48 264.057C1215.66 263.124 1213.63 262.657 1211.39 262.657C1208.17 262.657 1205.42 263.684 1203.13 265.737C1200.89 267.79 1199.61 270.637 1199.28 274.277H1223.5ZM1257.18 257.197C1261.84 257.197 1265.62 258.62 1268.52 261.467C1271.41 264.267 1272.86 268.327 1272.86 273.647V296.257H1266.56V274.557C1266.56 270.73 1265.6 267.814 1263.69 265.807C1261.77 263.754 1259.16 262.727 1255.85 262.727C1252.49 262.727 1249.8 263.777 1247.8 265.877C1245.84 267.977 1244.86 271.034 1244.86 275.047V296.257H1238.49V257.897H1244.86V263.357C1246.12 261.397 1247.82 259.88 1249.97 258.807C1252.16 257.734 1254.56 257.197 1257.18 257.197ZM1291.03 263.147V285.757C1291.03 287.624 1291.43 288.954 1292.22 289.747C1293.02 290.494 1294.39 290.867 1296.35 290.867H1301.04V296.257H1295.3C1291.76 296.257 1289.1 295.44 1287.32 293.807C1285.55 292.174 1284.66 289.49 1284.66 285.757V263.147H1279.69V257.897H1284.66V248.237H1291.03V257.897H1301.04V263.147H1291.03ZM1306.38 276.937C1306.38 273.017 1307.17 269.587 1308.76 266.647C1310.35 263.66 1312.52 261.35 1315.27 259.717C1318.07 258.084 1321.17 257.267 1324.58 257.267C1327.94 257.267 1330.86 257.99 1333.33 259.437C1335.8 260.884 1337.65 262.704 1338.86 264.897V257.897H1345.3V296.257H1338.86V289.117C1337.6 291.357 1335.71 293.224 1333.19 294.717C1330.72 296.164 1327.82 296.887 1324.51 296.887C1321.1 296.887 1318.02 296.047 1315.27 294.367C1312.52 292.687 1310.35 290.33 1308.76 287.297C1307.17 284.264 1306.38 280.81 1306.38 276.937ZM1338.86 277.007C1338.86 274.114 1338.28 271.594 1337.11 269.447C1335.94 267.3 1334.36 265.667 1332.35 264.547C1330.39 263.38 1328.22 262.797 1325.84 262.797C1323.46 262.797 1321.29 263.357 1319.33 264.477C1317.37 265.597 1315.81 267.23 1314.64 269.377C1313.47 271.524 1312.89 274.044 1312.89 276.937C1312.89 279.877 1313.47 282.444 1314.64 284.637C1315.81 286.784 1317.37 288.44 1319.33 289.607C1321.29 290.727 1323.46 291.287 1325.84 291.287C1328.22 291.287 1330.39 290.727 1332.35 289.607C1334.36 288.44 1335.94 286.784 1337.11 284.637C1338.28 282.444 1338.86 279.9 1338.86 277.007ZM1374.76 257.197C1379.42 257.197 1383.2 258.62 1386.1 261.467C1388.99 264.267 1390.44 268.327 1390.44 273.647V296.257H1384.14V274.557C1384.14 270.73 1383.18 267.814 1381.27 265.807C1379.35 263.754 1376.74 262.727 1373.43 262.727C1370.07 262.727 1367.38 263.777 1365.38 265.877C1363.42 267.977 1362.44 271.034 1362.44 275.047V296.257H1356.07V257.897H1362.44V263.357C1363.7 261.397 1365.4 259.88 1367.55 258.807C1369.74 257.734 1372.14 257.197 1374.76 257.197ZM1398.46 276.937C1398.46 273.017 1399.25 269.587 1400.84 266.647C1402.43 263.66 1404.6 261.35 1407.35 259.717C1410.15 258.084 1413.28 257.267 1416.73 257.267C1419.72 257.267 1422.49 257.967 1425.06 259.367C1427.63 260.72 1429.59 262.517 1430.94 264.757V244.457H1437.38V296.257H1430.94V289.047C1429.68 291.334 1427.81 293.224 1425.34 294.717C1422.87 296.164 1419.97 296.887 1416.66 296.887C1413.25 296.887 1410.15 296.047 1407.35 294.367C1404.6 292.687 1402.43 290.33 1400.84 287.297C1399.25 284.264 1398.46 280.81 1398.46 276.937ZM1430.94 277.007C1430.94 274.114 1430.36 271.594 1429.19 269.447C1428.02 267.3 1426.44 265.667 1424.43 264.547C1422.47 263.38 1420.3 262.797 1417.92 262.797C1415.54 262.797 1413.37 263.357 1411.41 264.477C1409.45 265.597 1407.89 267.23 1406.72 269.377C1405.55 271.524 1404.97 274.044 1404.97 276.937C1404.97 279.877 1405.55 282.444 1406.72 284.637C1407.89 286.784 1409.45 288.44 1411.41 289.607C1413.37 290.727 1415.54 291.287 1417.92 291.287C1420.3 291.287 1422.47 290.727 1424.43 289.607C1426.44 288.44 1428.02 286.784 1429.19 284.637C1430.36 282.444 1430.94 279.9 1430.94 277.007ZM1464.88 296.887C1461.28 296.887 1458.02 296.07 1455.08 294.437C1452.18 292.804 1449.9 290.494 1448.22 287.507C1446.58 284.474 1445.77 280.974 1445.77 277.007C1445.77 273.087 1446.61 269.634 1448.29 266.647C1450.01 263.614 1452.35 261.304 1455.29 259.717C1458.23 258.084 1461.52 257.267 1465.16 257.267C1468.8 257.267 1472.09 258.084 1475.03 259.717C1477.97 261.304 1480.28 263.59 1481.96 266.577C1483.68 269.564 1484.55 273.04 1484.55 277.007C1484.55 280.974 1483.66 284.474 1481.89 287.507C1480.16 290.494 1477.8 292.804 1474.82 294.437C1471.83 296.07 1468.52 296.887 1464.88 296.887ZM1464.88 291.287C1467.16 291.287 1469.31 290.75 1471.32 289.677C1473.32 288.604 1474.93 286.994 1476.15 284.847C1477.41 282.7 1478.04 280.087 1478.04 277.007C1478.04 273.927 1477.43 271.314 1476.22 269.167C1475 267.02 1473.42 265.434 1471.46 264.407C1469.5 263.334 1467.37 262.797 1465.09 262.797C1462.75 262.797 1460.61 263.334 1458.65 264.407C1456.73 265.434 1455.19 267.02 1454.03 269.167C1452.86 271.314 1452.28 273.927 1452.28 277.007C1452.28 280.134 1452.84 282.77 1453.96 284.917C1455.12 287.064 1456.66 288.674 1458.58 289.747C1460.49 290.774 1462.59 291.287 1464.88 291.287ZM838.359 369.967C839.619 367.774 841.486 365.954 843.959 364.507C846.479 363.013 849.396 362.267 852.709 362.267C856.116 362.267 859.196 363.084 861.949 364.717C864.749 366.35 866.942 368.66 868.529 371.647C870.116 374.587 870.909 378.017 870.909 381.937C870.909 385.81 870.116 389.264 868.529 392.297C866.942 395.33 864.749 397.687 861.949 399.367C859.196 401.047 856.116 401.887 852.709 401.887C849.442 401.887 846.549 401.164 844.029 399.717C841.556 398.224 839.666 396.38 838.359 394.187V419.457H831.989V362.897H838.359V369.967ZM864.399 381.937C864.399 379.044 863.816 376.524 862.649 374.377C861.482 372.23 859.896 370.597 857.889 369.477C855.929 368.357 853.759 367.797 851.379 367.797C849.046 367.797 846.876 368.38 844.869 369.547C842.909 370.667 841.322 372.324 840.109 374.517C838.942 376.664 838.359 379.16 838.359 382.007C838.359 384.9 838.942 387.444 840.109 389.637C841.322 391.784 842.909 393.44 844.869 394.607C846.876 395.727 849.046 396.287 851.379 396.287C853.759 396.287 855.929 395.727 857.889 394.607C859.896 393.44 861.482 391.784 862.649 389.637C863.816 387.444 864.399 384.877 864.399 381.937ZM876.914 381.937C876.914 378.017 877.707 374.587 879.294 371.647C880.88 368.66 883.05 366.35 885.804 364.717C888.604 363.084 891.707 362.267 895.114 362.267C898.474 362.267 901.39 362.99 903.864 364.437C906.337 365.884 908.18 367.704 909.394 369.897V362.897H915.834V401.257H909.394V394.117C908.134 396.357 906.244 398.224 903.724 399.717C901.25 401.164 898.357 401.887 895.044 401.887C891.637 401.887 888.557 401.047 885.804 399.367C883.05 397.687 880.88 395.33 879.294 392.297C877.707 389.264 876.914 385.81 876.914 381.937ZM909.394 382.007C909.394 379.114 908.81 376.594 907.644 374.447C906.477 372.3 904.89 370.667 902.884 369.547C900.924 368.38 898.754 367.797 896.374 367.797C893.994 367.797 891.824 368.357 889.864 369.477C887.904 370.597 886.34 372.23 885.174 374.377C884.007 376.524 883.424 379.044 883.424 381.937C883.424 384.877 884.007 387.444 885.174 389.637C886.34 391.784 887.904 393.44 889.864 394.607C891.824 395.727 893.994 396.287 896.374 396.287C898.754 396.287 900.924 395.727 902.884 394.607C904.89 393.44 906.477 391.784 907.644 389.637C908.81 387.444 909.394 384.9 909.394 382.007ZM932.968 369.127C934.088 366.934 935.675 365.23 937.728 364.017C939.828 362.804 942.372 362.197 945.358 362.197V368.777H943.678C936.538 368.777 932.968 372.65 932.968 380.397V401.257H926.598V362.897H932.968V369.127ZM950.332 381.937C950.332 378.017 951.125 374.587 952.712 371.647C954.298 368.66 956.468 366.35 959.222 364.717C962.022 363.084 965.125 362.267 968.532 362.267C971.892 362.267 974.808 362.99 977.282 364.437C979.755 365.884 981.598 367.704 982.812 369.897V362.897H989.252V401.257H982.812V394.117C981.552 396.357 979.662 398.224 977.142 399.717C974.668 401.164 971.775 401.887 968.462 401.887C965.055 401.887 961.975 401.047 959.222 399.367C956.468 397.687 954.298 395.33 952.712 392.297C951.125 389.264 950.332 385.81 950.332 381.937ZM982.812 382.007C982.812 379.114 982.228 376.594 981.062 374.447C979.895 372.3 978.308 370.667 976.302 369.547C974.342 368.38 972.172 367.797 969.792 367.797C967.412 367.797 965.242 368.357 963.282 369.477C961.322 370.597 959.758 372.23 958.592 374.377C957.425 376.524 956.842 379.044 956.842 381.937C956.842 384.877 957.425 387.444 958.592 389.637C959.758 391.784 961.322 393.44 963.282 394.607C965.242 395.727 967.412 396.287 969.792 396.287C972.172 396.287 974.342 395.727 976.302 394.607C978.308 393.44 979.895 391.784 981.062 389.637C982.228 387.444 982.812 384.9 982.812 382.007ZM1025.05 349.457V401.257H1018.68V349.457H1025.05ZM1033.53 381.937C1033.53 378.017 1034.32 374.587 1035.91 371.647C1037.49 368.66 1039.66 366.35 1042.42 364.717C1045.22 363.084 1048.32 362.267 1051.73 362.267C1055.09 362.267 1058 362.99 1060.48 364.437C1062.95 365.884 1064.79 367.704 1066.01 369.897V362.897H1072.45V401.257H1066.01V394.117C1064.75 396.357 1062.86 398.224 1060.34 399.717C1057.86 401.164 1054.97 401.887 1051.66 401.887C1048.25 401.887 1045.17 401.047 1042.42 399.367C1039.66 397.687 1037.49 395.33 1035.91 392.297C1034.32 389.264 1033.53 385.81 1033.53 381.937ZM1066.01 382.007C1066.01 379.114 1065.42 376.594 1064.26 374.447C1063.09 372.3 1061.5 370.667 1059.5 369.547C1057.54 368.38 1055.37 367.797 1052.99 367.797C1050.61 367.797 1048.44 368.357 1046.48 369.477C1044.52 370.597 1042.95 372.23 1041.79 374.377C1040.62 376.524 1040.04 379.044 1040.04 381.937C1040.04 384.877 1040.62 387.444 1041.79 389.637C1042.95 391.784 1044.52 393.44 1046.48 394.607C1048.44 395.727 1050.61 396.287 1052.99 396.287C1055.37 396.287 1057.54 395.727 1059.5 394.607C1061.5 393.44 1063.09 391.784 1064.26 389.637C1065.42 387.444 1066.01 384.9 1066.01 382.007ZM1136.87 380.607C1136.87 381.82 1136.8 383.104 1136.66 384.457H1106C1106.24 388.237 1107.52 391.2 1109.85 393.347C1112.23 395.447 1115.1 396.497 1118.46 396.497C1121.22 396.497 1123.5 395.867 1125.32 394.607C1127.19 393.3 1128.5 391.574 1129.24 389.427H1136.1C1135.08 393.114 1133.02 396.124 1129.94 398.457C1126.86 400.744 1123.04 401.887 1118.46 401.887C1114.82 401.887 1111.56 401.07 1108.66 399.437C1105.82 397.804 1103.58 395.494 1101.94 392.507C1100.31 389.474 1099.49 385.974 1099.49 382.007C1099.49 378.04 1100.29 374.564 1101.87 371.577C1103.46 368.59 1105.68 366.304 1108.52 364.717C1111.42 363.084 1114.73 362.267 1118.46 362.267C1122.1 362.267 1125.32 363.06 1128.12 364.647C1130.92 366.234 1133.07 368.427 1134.56 371.227C1136.1 373.98 1136.87 377.107 1136.87 380.607ZM1130.29 379.277C1130.29 376.85 1129.76 374.774 1128.68 373.047C1127.61 371.274 1126.14 369.944 1124.27 369.057C1122.45 368.124 1120.42 367.657 1118.18 367.657C1114.96 367.657 1112.21 368.684 1109.92 370.737C1107.68 372.79 1106.4 375.637 1106.07 379.277H1130.29ZM1159.56 395.377L1171.46 362.897H1178.25L1163.2 401.257H1155.78L1140.73 362.897H1147.59L1159.56 395.377ZM1201.25 401.887C1197.66 401.887 1194.39 401.07 1191.45 399.437C1188.56 397.804 1186.27 395.494 1184.59 392.507C1182.96 389.474 1182.14 385.974 1182.14 382.007C1182.14 378.087 1182.98 374.634 1184.66 371.647C1186.39 368.614 1188.72 366.304 1191.66 364.717C1194.6 363.084 1197.89 362.267 1201.53 362.267C1205.17 362.267 1208.46 363.084 1211.4 364.717C1214.34 366.304 1216.65 368.59 1218.33 371.577C1220.06 374.564 1220.92 378.04 1220.92 382.007C1220.92 385.974 1220.03 389.474 1218.26 392.507C1216.53 395.494 1214.18 397.804 1211.19 399.437C1208.2 401.07 1204.89 401.887 1201.25 401.887ZM1201.25 396.287C1203.54 396.287 1205.68 395.75 1207.69 394.677C1209.7 393.604 1211.31 391.994 1212.52 389.847C1213.78 387.7 1214.41 385.087 1214.41 382.007C1214.41 378.927 1213.8 376.314 1212.59 374.167C1211.38 372.02 1209.79 370.434 1207.83 369.407C1205.87 368.334 1203.75 367.797 1201.46 367.797C1199.13 367.797 1196.98 368.334 1195.02 369.407C1193.11 370.434 1191.57 372.02 1190.4 374.167C1189.23 376.314 1188.65 378.927 1188.65 382.007C1188.65 385.134 1189.21 387.77 1190.33 389.917C1191.5 392.064 1193.04 393.674 1194.95 394.747C1196.86 395.774 1198.96 396.287 1201.25 396.287ZM1235.66 349.457V401.257H1229.29V349.457H1235.66ZM1280.54 362.897V401.257H1274.17V395.587C1272.96 397.547 1271.25 399.087 1269.06 400.207C1266.91 401.28 1264.53 401.817 1261.92 401.817C1258.93 401.817 1256.25 401.21 1253.87 399.997C1251.49 398.737 1249.6 396.87 1248.2 394.397C1246.85 391.924 1246.17 388.914 1246.17 385.367V362.897H1252.47V384.527C1252.47 388.307 1253.43 391.224 1255.34 393.277C1257.25 395.284 1259.87 396.287 1263.18 396.287C1266.59 396.287 1269.27 395.237 1271.23 393.137C1273.19 391.037 1274.17 387.98 1274.17 383.967V362.897H1280.54ZM1288.92 382.007C1288.92 378.04 1289.71 374.587 1291.3 371.647C1292.88 368.66 1295.08 366.35 1297.88 364.717C1300.72 363.084 1303.97 362.267 1307.61 362.267C1312.32 362.267 1316.19 363.41 1319.23 365.697C1322.31 367.984 1324.34 371.157 1325.32 375.217H1318.46C1317.8 372.884 1316.52 371.04 1314.61 369.687C1312.74 368.334 1310.41 367.657 1307.61 367.657C1303.97 367.657 1301.03 368.917 1298.79 371.437C1296.55 373.91 1295.43 377.434 1295.43 382.007C1295.43 386.627 1296.55 390.197 1298.79 392.717C1301.03 395.237 1303.97 396.497 1307.61 396.497C1310.41 396.497 1312.74 395.844 1314.61 394.537C1316.47 393.23 1317.76 391.364 1318.46 388.937H1325.32C1324.29 392.857 1322.24 396.007 1319.16 398.387C1316.08 400.72 1312.23 401.887 1307.61 401.887C1303.97 401.887 1300.72 401.07 1297.88 399.437C1295.08 397.804 1292.88 395.494 1291.3 392.507C1289.71 389.52 1288.92 386.02 1288.92 382.007ZM1337.11 356.667C1335.89 356.667 1334.87 356.247 1334.03 355.407C1333.19 354.567 1332.77 353.54 1332.77 352.327C1332.77 351.114 1333.19 350.087 1334.03 349.247C1334.87 348.407 1335.89 347.987 1337.11 347.987C1338.27 347.987 1339.25 348.407 1340.05 349.247C1340.89 350.087 1341.31 351.114 1341.31 352.327C1341.31 353.54 1340.89 354.567 1340.05 355.407C1339.25 356.247 1338.27 356.667 1337.11 356.667ZM1340.19 362.897V401.257H1333.82V362.897H1340.19ZM1367.77 401.887C1364.18 401.887 1360.91 401.07 1357.97 399.437C1355.08 397.804 1352.79 395.494 1351.11 392.507C1349.48 389.474 1348.66 385.974 1348.66 382.007C1348.66 378.087 1349.5 374.634 1351.18 371.647C1352.91 368.614 1355.24 366.304 1358.18 364.717C1361.12 363.084 1364.41 362.267 1368.05 362.267C1371.69 362.267 1374.98 363.084 1377.92 364.717C1380.86 366.304 1383.17 368.59 1384.85 371.577C1386.58 374.564 1387.44 378.04 1387.44 382.007C1387.44 385.974 1386.56 389.474 1384.78 392.507C1383.06 395.494 1380.7 397.804 1377.71 399.437C1374.73 401.07 1371.41 401.887 1367.77 401.887ZM1367.77 396.287C1370.06 396.287 1372.21 395.75 1374.21 394.677C1376.22 393.604 1377.83 391.994 1379.04 389.847C1380.3 387.7 1380.93 385.087 1380.93 382.007C1380.93 378.927 1380.33 376.314 1379.11 374.167C1377.9 372.02 1376.31 370.434 1374.35 369.407C1372.39 368.334 1370.27 367.797 1367.98 367.797C1365.65 367.797 1363.5 368.334 1361.54 369.407C1359.63 370.434 1358.09 372.02 1356.92 374.167C1355.76 376.314 1355.17 378.927 1355.17 382.007C1355.17 385.134 1355.73 387.77 1356.85 389.917C1358.02 392.064 1359.56 393.674 1361.47 394.747C1363.39 395.774 1365.49 396.287 1367.77 396.287ZM1374.91 351.557L1360 359.537V354.777L1374.91 346.027V351.557ZM1414.51 362.197C1419.17 362.197 1422.95 363.62 1425.85 366.467C1428.74 369.267 1430.19 373.327 1430.19 378.647V401.257H1423.89V379.557C1423.89 375.73 1422.93 372.814 1421.02 370.807C1419.1 368.754 1416.49 367.727 1413.18 367.727C1409.82 367.727 1407.13 368.777 1405.13 370.877C1403.17 372.977 1402.19 376.034 1402.19 380.047V401.257H1395.82V362.897H1402.19V368.357C1403.45 366.397 1405.15 364.88 1407.3 363.807C1409.49 362.734 1411.89 362.197 1414.51 362.197ZM1456.87 381.937C1456.87 378.017 1457.67 374.587 1459.25 371.647C1460.84 368.66 1463.01 366.35 1465.76 364.717C1468.56 363.084 1471.69 362.267 1475.14 362.267C1478.13 362.267 1480.91 362.967 1483.47 364.367C1486.04 365.72 1488 367.517 1489.35 369.757V349.457H1495.79V401.257H1489.35V394.047C1488.09 396.334 1486.23 398.224 1483.75 399.717C1481.28 401.164 1478.39 401.887 1475.07 401.887C1471.67 401.887 1468.56 401.047 1465.76 399.367C1463.01 397.687 1460.84 395.33 1459.25 392.297C1457.67 389.264 1456.87 385.81 1456.87 381.937ZM1489.35 382.007C1489.35 379.114 1488.77 376.594 1487.6 374.447C1486.44 372.3 1484.85 370.667 1482.84 369.547C1480.88 368.38 1478.71 367.797 1476.33 367.797C1473.95 367.797 1471.78 368.357 1469.82 369.477C1467.86 370.597 1466.3 372.23 1465.13 374.377C1463.97 376.524 1463.38 379.044 1463.38 381.937C1463.38 384.877 1463.97 387.444 1465.13 389.637C1466.3 391.784 1467.86 393.44 1469.82 394.607C1471.78 395.727 1473.95 396.287 1476.33 396.287C1478.71 396.287 1480.88 395.727 1482.84 394.607C1484.85 393.44 1486.44 391.784 1487.6 389.637C1488.77 387.444 1489.35 384.9 1489.35 382.007ZM1541.56 380.607C1541.56 381.82 1541.49 383.104 1541.35 384.457H1510.69C1510.92 388.237 1512.21 391.2 1514.54 393.347C1516.92 395.447 1519.79 396.497 1523.15 396.497C1525.9 396.497 1528.19 395.867 1530.01 394.607C1531.88 393.3 1533.18 391.574 1533.93 389.427H1540.79C1539.76 393.114 1537.71 396.124 1534.63 398.457C1531.55 400.744 1527.72 401.887 1523.15 401.887C1519.51 401.887 1516.24 401.07 1513.35 399.437C1510.5 397.804 1508.26 395.494 1506.63 392.507C1505 389.474 1504.18 385.974 1504.18 382.007C1504.18 378.04 1504.97 374.564 1506.56 371.577C1508.15 368.59 1510.36 366.304 1513.21 364.717C1516.1 363.084 1519.42 362.267 1523.15 362.267C1526.79 362.267 1530.01 363.06 1532.81 364.647C1535.61 366.234 1537.76 368.427 1539.25 371.227C1540.79 373.98 1541.56 377.107 1541.56 380.607ZM1534.98 379.277C1534.98 376.85 1534.44 374.774 1533.37 373.047C1532.3 371.274 1530.83 369.944 1528.96 369.057C1527.14 368.124 1525.11 367.657 1522.87 367.657C1519.65 367.657 1516.9 368.684 1514.61 370.737C1512.37 372.79 1511.09 375.637 1510.76 379.277H1534.98ZM1575 349.457V401.257H1568.63V349.457H1575ZM1583.48 381.937C1583.48 378.017 1584.27 374.587 1585.86 371.647C1587.44 368.66 1589.61 366.35 1592.37 364.717C1595.17 363.084 1598.27 362.267 1601.68 362.267C1605.04 362.267 1607.95 362.99 1610.43 364.437C1612.9 365.884 1614.74 367.704 1615.96 369.897V362.897H1622.4V401.257H1615.96V394.117C1614.7 396.357 1612.81 398.224 1610.29 399.717C1607.81 401.164 1604.92 401.887 1601.61 401.887C1598.2 401.887 1595.12 401.047 1592.37 399.367C1589.61 397.687 1587.44 395.33 1585.86 392.297C1584.27 389.264 1583.48 385.81 1583.48 381.937ZM1615.96 382.007C1615.96 379.114 1615.37 376.594 1614.21 374.447C1613.04 372.3 1611.45 370.667 1609.45 369.547C1607.49 368.38 1605.32 367.797 1602.94 367.797C1600.56 367.797 1598.39 368.357 1596.43 369.477C1594.47 370.597 1592.9 372.23 1591.74 374.377C1590.57 376.524 1589.99 379.044 1589.99 381.937C1589.99 384.877 1590.57 387.444 1591.74 389.637C1592.9 391.784 1594.47 393.44 1596.43 394.607C1598.39 395.727 1600.56 396.287 1602.94 396.287C1605.32 396.287 1607.49 395.727 1609.45 394.607C1611.45 393.44 1613.04 391.784 1614.21 389.637C1615.37 387.444 1615.96 384.9 1615.96 382.007ZM190.471 485.607C190.471 486.82 190.401 488.104 190.261 489.457H159.601C159.834 493.237 161.117 496.2 163.451 498.347C165.831 500.447 168.701 501.497 172.061 501.497C174.814 501.497 177.101 500.867 178.921 499.607C180.787 498.3 182.094 496.574 182.841 494.427H189.701C188.674 498.114 186.621 501.124 183.541 503.457C180.461 505.744 176.634 506.887 172.061 506.887C168.421 506.887 165.154 506.07 162.261 504.437C159.414 502.804 157.174 500.494 155.541 497.507C153.907 494.474 153.091 490.974 153.091 487.007C153.091 483.04 153.884 479.564 155.471 476.577C157.057 473.59 159.274 471.304 162.121 469.717C165.014 468.084 168.327 467.267 172.061 467.267C175.701 467.267 178.921 468.06 181.721 469.647C184.521 471.234 186.667 473.427 188.161 476.227C189.701 478.98 190.471 482.107 190.471 485.607ZM183.891 484.277C183.891 481.85 183.354 479.774 182.281 478.047C181.207 476.274 179.737 474.944 177.871 474.057C176.051 473.124 174.021 472.657 171.781 472.657C168.561 472.657 165.807 473.684 163.521 475.737C161.281 477.79 159.997 480.637 159.671 484.277H183.891ZM217.569 467.197C222.235 467.197 226.015 468.62 228.909 471.467C231.802 474.267 233.249 478.327 233.249 483.647V506.257H226.949V484.557C226.949 480.73 225.992 477.814 224.079 475.807C222.165 473.754 219.552 472.727 216.239 472.727C212.879 472.727 210.195 473.777 208.189 475.877C206.229 477.977 205.249 481.034 205.249 485.047V506.257H198.879V467.897H205.249V473.357C206.509 471.397 208.212 469.88 210.359 468.807C212.552 467.734 214.955 467.197 217.569 467.197ZM257.234 506.887C254.294 506.887 251.657 506.397 249.324 505.417C246.991 504.39 245.147 502.99 243.794 501.217C242.441 499.397 241.694 497.32 241.554 494.987H248.134C248.321 496.9 249.207 498.464 250.794 499.677C252.427 500.89 254.551 501.497 257.164 501.497C259.591 501.497 261.504 500.96 262.904 499.887C264.304 498.814 265.004 497.46 265.004 495.827C265.004 494.147 264.257 492.91 262.764 492.117C261.271 491.277 258.961 490.46 255.834 489.667C252.987 488.92 250.654 488.174 248.834 487.427C247.061 486.634 245.521 485.49 244.214 483.997C242.954 482.457 242.324 480.45 242.324 477.977C242.324 476.017 242.907 474.22 244.074 472.587C245.241 470.954 246.897 469.67 249.044 468.737C251.191 467.757 253.641 467.267 256.394 467.267C260.641 467.267 264.071 468.34 266.684 470.487C269.297 472.634 270.697 475.574 270.884 479.307H264.514C264.374 477.3 263.557 475.69 262.064 474.477C260.617 473.264 258.657 472.657 256.184 472.657C253.897 472.657 252.077 473.147 250.724 474.127C249.371 475.107 248.694 476.39 248.694 477.977C248.694 479.237 249.091 480.287 249.884 481.127C250.724 481.92 251.751 482.574 252.964 483.087C254.224 483.554 255.951 484.09 258.144 484.697C260.897 485.444 263.137 486.19 264.864 486.937C266.591 487.637 268.061 488.71 269.274 490.157C270.534 491.604 271.187 493.494 271.234 495.827C271.234 497.927 270.651 499.817 269.484 501.497C268.317 503.177 266.661 504.507 264.514 505.487C262.414 506.42 259.987 506.887 257.234 506.887ZM315.226 485.607C315.226 486.82 315.156 488.104 315.016 489.457H284.356C284.59 493.237 285.873 496.2 288.206 498.347C290.586 500.447 293.456 501.497 296.816 501.497C299.57 501.497 301.856 500.867 303.676 499.607C305.543 498.3 306.85 496.574 307.596 494.427H314.456C313.43 498.114 311.376 501.124 308.296 503.457C305.216 505.744 301.39 506.887 296.816 506.887C293.176 506.887 289.91 506.07 287.016 504.437C284.17 502.804 281.93 500.494 280.296 497.507C278.663 494.474 277.846 490.974 277.846 487.007C277.846 483.04 278.64 479.564 280.226 476.577C281.813 473.59 284.03 471.304 286.876 469.717C289.77 468.084 293.083 467.267 296.816 467.267C300.456 467.267 303.676 468.06 306.476 469.647C309.276 471.234 311.423 473.427 312.916 476.227C314.456 478.98 315.226 482.107 315.226 485.607ZM308.646 484.277C308.646 481.85 308.11 479.774 307.036 478.047C305.963 476.274 304.493 474.944 302.626 474.057C300.806 473.124 298.776 472.657 296.536 472.657C293.316 472.657 290.563 473.684 288.276 475.737C286.036 477.79 284.753 480.637 284.426 484.277H308.646ZM342.325 467.197C346.991 467.197 350.771 468.62 353.665 471.467C356.558 474.267 358.005 478.327 358.005 483.647V506.257H351.705V484.557C351.705 480.73 350.748 477.814 348.835 475.807C346.921 473.754 344.308 472.727 340.995 472.727C337.635 472.727 334.951 473.777 332.945 475.877C330.985 477.977 330.005 481.034 330.005 485.047V506.257H323.635V467.897H330.005V473.357C331.265 471.397 332.968 469.88 335.115 468.807C337.308 467.734 339.711 467.197 342.325 467.197ZM330.495 463.767C330.821 461.387 331.591 459.567 332.805 458.307C334.065 457.047 335.628 456.417 337.495 456.417C338.381 456.417 339.128 456.58 339.735 456.907C340.388 457.187 341.158 457.607 342.045 458.167C342.698 458.633 343.281 459.007 343.795 459.287C344.308 459.52 344.868 459.637 345.475 459.637C346.268 459.637 346.945 459.38 347.505 458.867C348.065 458.354 348.415 457.607 348.555 456.627H352.195C351.915 458.96 351.145 460.757 349.885 462.017C348.625 463.277 347.061 463.907 345.195 463.907C344.308 463.907 343.515 463.767 342.815 463.487C342.161 463.16 341.415 462.694 340.575 462.087C339.828 461.62 339.221 461.27 338.755 461.037C338.335 460.804 337.821 460.687 337.215 460.687C336.421 460.687 335.745 460.944 335.185 461.457C334.671 461.97 334.345 462.74 334.205 463.767H330.495ZM366.03 486.937C366.03 483.017 366.823 479.587 368.41 476.647C369.997 473.66 372.167 471.35 374.92 469.717C377.72 468.084 380.823 467.267 384.23 467.267C387.59 467.267 390.507 467.99 392.98 469.437C395.453 470.884 397.297 472.704 398.51 474.897V467.897H404.95V506.257H398.51V499.117C397.25 501.357 395.36 503.224 392.84 504.717C390.367 506.164 387.473 506.887 384.16 506.887C380.753 506.887 377.673 506.047 374.92 504.367C372.167 502.687 369.997 500.33 368.41 497.297C366.823 494.264 366.03 490.81 366.03 486.937ZM398.51 487.007C398.51 484.114 397.927 481.594 396.76 479.447C395.593 477.3 394.007 475.667 392 474.547C390.04 473.38 387.87 472.797 385.49 472.797C383.11 472.797 380.94 473.357 378.98 474.477C377.02 475.597 375.457 477.23 374.29 479.377C373.123 481.524 372.54 484.044 372.54 486.937C372.54 489.877 373.123 492.444 374.29 494.637C375.457 496.784 377.02 498.44 378.98 499.607C380.94 500.727 383.11 501.287 385.49 501.287C387.87 501.287 390.04 500.727 392 499.607C394.007 498.44 395.593 496.784 396.76 494.637C397.927 492.444 398.51 489.9 398.51 487.007ZM434.405 467.197C439.071 467.197 442.851 468.62 445.745 471.467C448.638 474.267 450.085 478.327 450.085 483.647V506.257H443.785V484.557C443.785 480.73 442.828 477.814 440.915 475.807C439.001 473.754 436.388 472.727 433.075 472.727C429.715 472.727 427.031 473.777 425.025 475.877C423.065 477.977 422.085 481.034 422.085 485.047V506.257H415.715V467.897H422.085V473.357C423.345 471.397 425.048 469.88 427.195 468.807C429.388 467.734 431.791 467.197 434.405 467.197ZM465.25 501.007H484.08V506.257H457.97V501.007L476.59 473.077H458.11V467.897H483.94V473.077L465.25 501.007ZM489.966 486.937C489.966 483.017 490.759 479.587 492.346 476.647C493.932 473.66 496.102 471.35 498.856 469.717C501.656 468.084 504.759 467.267 508.166 467.267C511.526 467.267 514.442 467.99 516.916 469.437C519.389 470.884 521.232 472.704 522.446 474.897V467.897H528.886V506.257H522.446V499.117C521.186 501.357 519.296 503.224 516.776 504.717C514.302 506.164 511.409 506.887 508.096 506.887C504.689 506.887 501.609 506.047 498.856 504.367C496.102 502.687 493.932 500.33 492.346 497.297C490.759 494.264 489.966 490.81 489.966 486.937ZM522.446 487.007C522.446 484.114 521.862 481.594 520.696 479.447C519.529 477.3 517.942 475.667 515.936 474.547C513.976 473.38 511.806 472.797 509.426 472.797C507.046 472.797 504.876 473.357 502.916 474.477C500.956 475.597 499.392 477.23 498.226 479.377C497.059 481.524 496.476 484.044 496.476 486.937C496.476 489.877 497.059 492.444 498.226 494.637C499.392 496.784 500.956 498.44 502.916 499.607C504.876 500.727 507.046 501.287 509.426 501.287C511.806 501.287 513.976 500.727 515.936 499.607C517.942 498.44 519.529 496.784 520.696 494.637C521.862 492.444 522.446 489.9 522.446 487.007ZM546.23 497.437L538.39 516.267H534.12L539.23 497.437H546.23ZM578.559 474.127C579.679 471.934 581.266 470.23 583.319 469.017C585.419 467.804 587.963 467.197 590.949 467.197V473.777H589.269C582.129 473.777 578.559 477.65 578.559 485.397V506.257H572.189V467.897H578.559V474.127ZM633.303 485.607C633.303 486.82 633.233 488.104 633.093 489.457H602.433C602.666 493.237 603.949 496.2 606.283 498.347C608.663 500.447 611.533 501.497 614.893 501.497C617.646 501.497 619.933 500.867 621.753 499.607C623.619 498.3 624.926 496.574 625.673 494.427H632.533C631.506 498.114 629.453 501.124 626.373 503.457C623.293 505.744 619.466 506.887 614.893 506.887C611.253 506.887 607.986 506.07 605.093 504.437C602.246 502.804 600.006 500.494 598.373 497.507C596.739 494.474 595.923 490.974 595.923 487.007C595.923 483.04 596.716 479.564 598.303 476.577C599.889 473.59 602.106 471.304 604.953 469.717C607.846 468.084 611.159 467.267 614.893 467.267C618.533 467.267 621.753 468.06 624.553 469.647C627.353 471.234 629.499 473.427 630.993 476.227C632.533 478.98 633.303 482.107 633.303 485.607ZM626.723 484.277C626.723 481.85 626.186 479.774 625.113 478.047C624.039 476.274 622.569 474.944 620.703 474.057C618.883 473.124 616.853 472.657 614.613 472.657C611.393 472.657 608.639 473.684 606.353 475.737C604.113 477.79 602.829 480.637 602.503 484.277H626.723ZM639.331 487.007C639.331 483.04 640.124 479.587 641.711 476.647C643.297 473.66 645.491 471.35 648.291 469.717C651.137 468.084 654.381 467.267 658.021 467.267C662.734 467.267 666.607 468.41 669.641 470.697C672.721 472.984 674.751 476.157 675.731 480.217H668.871C668.217 477.884 666.934 476.04 665.021 474.687C663.154 473.334 660.821 472.657 658.021 472.657C654.381 472.657 651.441 473.917 649.201 476.437C646.961 478.91 645.841 482.434 645.841 487.007C645.841 491.627 646.961 495.197 649.201 497.717C651.441 500.237 654.381 501.497 658.021 501.497C660.821 501.497 663.154 500.844 665.021 499.537C666.887 498.23 668.171 496.364 668.871 493.937H675.731C674.704 497.857 672.651 501.007 669.571 503.387C666.491 505.72 662.641 506.887 658.021 506.887C654.381 506.887 651.137 506.07 648.291 504.437C645.491 502.804 643.297 500.494 641.711 497.507C640.124 494.52 639.331 491.02 639.331 487.007ZM718.25 467.897V506.257H711.88V500.587C710.667 502.547 708.964 504.087 706.77 505.207C704.624 506.28 702.244 506.817 699.63 506.817C696.644 506.817 693.96 506.21 691.58 504.997C689.2 503.737 687.31 501.87 685.91 499.397C684.557 496.924 683.88 493.914 683.88 490.367V467.897H690.18V489.527C690.18 493.307 691.137 496.224 693.05 498.277C694.964 500.284 697.577 501.287 700.89 501.287C704.297 501.287 706.98 500.237 708.94 498.137C710.9 496.037 711.88 492.98 711.88 488.967V467.897H718.25ZM735.376 474.967C736.636 472.774 738.502 470.954 740.976 469.507C743.496 468.013 746.412 467.267 749.726 467.267C753.132 467.267 756.212 468.084 758.966 469.717C761.766 471.35 763.959 473.66 765.546 476.647C767.132 479.587 767.926 483.017 767.926 486.937C767.926 490.81 767.132 494.264 765.546 497.297C763.959 500.33 761.766 502.687 758.966 504.367C756.212 506.047 753.132 506.887 749.726 506.887C746.459 506.887 743.566 506.164 741.046 504.717C738.572 503.224 736.682 501.38 735.376 499.187V524.457H729.006V467.897H735.376V474.967ZM761.416 486.937C761.416 484.044 760.832 481.524 759.666 479.377C758.499 477.23 756.912 475.597 754.906 474.477C752.946 473.357 750.776 472.797 748.396 472.797C746.062 472.797 743.892 473.38 741.886 474.547C739.926 475.667 738.339 477.324 737.126 479.517C735.959 481.664 735.376 484.16 735.376 487.007C735.376 489.9 735.959 492.444 737.126 494.637C738.339 496.784 739.926 498.44 741.886 499.607C743.892 500.727 746.062 501.287 748.396 501.287C750.776 501.287 752.946 500.727 754.906 499.607C756.912 498.44 758.499 496.784 759.666 494.637C760.832 492.444 761.416 489.877 761.416 486.937ZM811.31 485.607C811.31 486.82 811.24 488.104 811.1 489.457H780.44C780.674 493.237 781.957 496.2 784.29 498.347C786.67 500.447 789.54 501.497 792.9 501.497C795.654 501.497 797.94 500.867 799.76 499.607C801.627 498.3 802.934 496.574 803.68 494.427H810.54C809.514 498.114 807.46 501.124 804.38 503.457C801.3 505.744 797.474 506.887 792.9 506.887C789.26 506.887 785.994 506.07 783.1 504.437C780.254 502.804 778.014 500.494 776.38 497.507C774.747 494.474 773.93 490.974 773.93 487.007C773.93 483.04 774.724 479.564 776.31 476.577C777.897 473.59 780.114 471.304 782.96 469.717C785.854 468.084 789.167 467.267 792.9 467.267C796.54 467.267 799.76 468.06 802.56 469.647C805.36 471.234 807.507 473.427 809 476.227C810.54 478.98 811.31 482.107 811.31 485.607ZM804.73 484.277C804.73 481.85 804.194 479.774 803.12 478.047C802.047 476.274 800.577 474.944 798.71 474.057C796.89 473.124 794.86 472.657 792.62 472.657C789.4 472.657 786.647 473.684 784.36 475.737C782.12 477.79 780.837 480.637 780.51 484.277H804.73ZM826.089 474.127C827.209 471.934 828.795 470.23 830.849 469.017C832.949 467.804 835.492 467.197 838.479 467.197V473.777H836.799C829.659 473.777 826.089 477.65 826.089 485.397V506.257H819.719V467.897H826.089V474.127ZM843.452 486.937C843.452 483.017 844.245 479.587 845.832 476.647C847.419 473.66 849.589 471.35 852.342 469.717C855.142 468.084 858.245 467.267 861.652 467.267C865.012 467.267 867.929 467.99 870.402 469.437C872.875 470.884 874.719 472.704 875.932 474.897V467.897H882.372V506.257H875.932V499.117C874.672 501.357 872.782 503.224 870.262 504.717C867.789 506.164 864.895 506.887 861.582 506.887C858.175 506.887 855.095 506.047 852.342 504.367C849.589 502.687 847.419 500.33 845.832 497.297C844.245 494.264 843.452 490.81 843.452 486.937ZM875.932 487.007C875.932 484.114 875.349 481.594 874.182 479.447C873.015 477.3 871.429 475.667 869.422 474.547C867.462 473.38 865.292 472.797 862.912 472.797C860.532 472.797 858.362 473.357 856.402 474.477C854.442 475.597 852.879 477.23 851.712 479.377C850.545 481.524 849.962 484.044 849.962 486.937C849.962 489.877 850.545 492.444 851.712 494.637C852.879 496.784 854.442 498.44 856.402 499.607C858.362 500.727 860.532 501.287 862.912 501.287C865.292 501.287 867.462 500.727 869.422 499.607C871.429 498.44 873.015 496.784 874.182 494.637C875.349 492.444 875.932 489.9 875.932 487.007ZM899.507 474.127C900.627 471.934 902.213 470.23 904.267 469.017C906.367 467.804 908.91 467.197 911.897 467.197V473.777H910.217C903.077 473.777 899.507 477.65 899.507 485.397V506.257H893.137V467.897H899.507V474.127ZM972.912 485.607C972.912 486.82 972.842 488.104 972.702 489.457H942.042C942.275 493.237 943.559 496.2 945.892 498.347C948.272 500.447 951.142 501.497 954.502 501.497C957.255 501.497 959.542 500.867 961.362 499.607C963.229 498.3 964.535 496.574 965.282 494.427H972.142C971.115 498.114 969.062 501.124 965.982 503.457C962.902 505.744 959.075 506.887 954.502 506.887C950.862 506.887 947.595 506.07 944.702 504.437C941.855 502.804 939.615 500.494 937.982 497.507C936.349 494.474 935.532 490.974 935.532 487.007C935.532 483.04 936.325 479.564 937.912 476.577C939.499 473.59 941.715 471.304 944.562 469.717C947.455 468.084 950.769 467.267 954.502 467.267C958.142 467.267 961.362 468.06 964.162 469.647C966.962 471.234 969.109 473.427 970.602 476.227C972.142 478.98 972.912 482.107 972.912 485.607ZM966.332 484.277C966.332 481.85 965.795 479.774 964.722 478.047C963.649 476.274 962.179 474.944 960.312 474.057C958.492 473.124 956.462 472.657 954.222 472.657C951.002 472.657 948.249 473.684 945.962 475.737C943.722 477.79 942.439 480.637 942.112 484.277H966.332ZM987.69 454.457V506.257H981.32V454.457H987.69ZM1052.21 485.607C1052.21 486.82 1052.14 488.104 1052 489.457H1021.34C1021.57 493.237 1022.86 496.2 1025.19 498.347C1027.57 500.447 1030.44 501.497 1033.8 501.497C1036.55 501.497 1038.84 500.867 1040.66 499.607C1042.53 498.3 1043.83 496.574 1044.58 494.427H1051.44C1050.41 498.114 1048.36 501.124 1045.28 503.457C1042.2 505.744 1038.37 506.887 1033.8 506.887C1030.16 506.887 1026.89 506.07 1024 504.437C1021.15 502.804 1018.91 500.494 1017.28 497.507C1015.65 494.474 1014.83 490.974 1014.83 487.007C1014.83 483.04 1015.62 479.564 1017.21 476.577C1018.8 473.59 1021.01 471.304 1023.86 469.717C1026.75 468.084 1030.07 467.267 1033.8 467.267C1037.44 467.267 1040.66 468.06 1043.46 469.647C1046.26 471.234 1048.41 473.427 1049.9 476.227C1051.44 478.98 1052.21 482.107 1052.21 485.607ZM1045.63 484.277C1045.63 481.85 1045.09 479.774 1044.02 478.047C1042.95 476.274 1041.48 474.944 1039.61 474.057C1037.79 473.124 1035.76 472.657 1033.52 472.657C1030.3 472.657 1027.55 473.684 1025.26 475.737C1023.02 477.79 1021.74 480.637 1021.41 484.277H1045.63ZM1074.2 506.887C1071.26 506.887 1068.62 506.397 1066.29 505.417C1063.95 504.39 1062.11 502.99 1060.76 501.217C1059.4 499.397 1058.66 497.32 1058.52 494.987H1065.1C1065.28 496.9 1066.17 498.464 1067.76 499.677C1069.39 500.89 1071.51 501.497 1074.13 501.497C1076.55 501.497 1078.47 500.96 1079.87 499.887C1081.27 498.814 1081.97 497.46 1081.97 495.827C1081.97 494.147 1081.22 492.91 1079.73 492.117C1078.23 491.277 1075.92 490.46 1072.8 489.667C1069.95 488.92 1067.62 488.174 1065.8 487.427C1064.02 486.634 1062.48 485.49 1061.18 483.997C1059.92 482.457 1059.29 480.45 1059.29 477.977C1059.29 476.017 1059.87 474.22 1061.04 472.587C1062.2 470.954 1063.86 469.67 1066.01 468.737C1068.15 467.757 1070.6 467.267 1073.36 467.267C1077.6 467.267 1081.03 468.34 1083.65 470.487C1086.26 472.634 1087.66 475.574 1087.85 479.307H1081.48C1081.34 477.3 1080.52 475.69 1079.03 474.477C1077.58 473.264 1075.62 472.657 1073.15 472.657C1070.86 472.657 1069.04 473.147 1067.69 474.127C1066.33 475.107 1065.66 476.39 1065.66 477.977C1065.66 479.237 1066.05 480.287 1066.85 481.127C1067.69 481.92 1068.71 482.574 1069.93 483.087C1071.19 483.554 1072.91 484.09 1075.11 484.697C1077.86 485.444 1080.1 486.19 1081.83 486.937C1083.55 487.637 1085.02 488.71 1086.24 490.157C1087.5 491.604 1088.15 493.494 1088.2 495.827C1088.2 497.927 1087.61 499.817 1086.45 501.497C1085.28 503.177 1083.62 504.507 1081.48 505.487C1079.38 506.42 1076.95 506.887 1074.2 506.887ZM1104.96 473.147V495.757C1104.96 497.624 1105.36 498.954 1106.15 499.747C1106.94 500.494 1108.32 500.867 1110.28 500.867H1114.97V506.257H1109.23C1105.68 506.257 1103.02 505.44 1101.25 503.807C1099.48 502.174 1098.59 499.49 1098.59 495.757V473.147H1093.62V467.897H1098.59V458.237H1104.96V467.897H1114.97V473.147H1104.96ZM1120.31 486.937C1120.31 483.017 1121.1 479.587 1122.69 476.647C1124.27 473.66 1126.44 471.35 1129.2 469.717C1132 468.084 1135.1 467.267 1138.51 467.267C1141.87 467.267 1144.78 467.99 1147.26 469.437C1149.73 470.884 1151.57 472.704 1152.79 474.897V467.897H1159.23V506.257H1152.79V499.117C1151.53 501.357 1149.64 503.224 1147.12 504.717C1144.64 506.164 1141.75 506.887 1138.44 506.887C1135.03 506.887 1131.95 506.047 1129.2 504.367C1126.44 502.687 1124.27 500.33 1122.69 497.297C1121.1 494.264 1120.31 490.81 1120.31 486.937ZM1152.79 487.007C1152.79 484.114 1152.2 481.594 1151.04 479.447C1149.87 477.3 1148.28 475.667 1146.28 474.547C1144.32 473.38 1142.15 472.797 1139.77 472.797C1137.39 472.797 1135.22 473.357 1133.26 474.477C1131.3 475.597 1129.73 477.23 1128.57 479.377C1127.4 481.524 1126.82 484.044 1126.82 486.937C1126.82 489.877 1127.4 492.444 1128.57 494.637C1129.73 496.784 1131.3 498.44 1133.26 499.607C1135.22 500.727 1137.39 501.287 1139.77 501.287C1142.15 501.287 1144.32 500.727 1146.28 499.607C1148.28 498.44 1149.87 496.784 1151.04 494.637C1152.2 492.444 1152.79 489.9 1152.79 487.007ZM1167.61 486.937C1167.61 483.017 1168.41 479.587 1169.99 476.647C1171.58 473.66 1173.75 471.35 1176.5 469.717C1179.3 468.084 1182.43 467.267 1185.88 467.267C1188.87 467.267 1191.65 467.967 1194.21 469.367C1196.78 470.72 1198.74 472.517 1200.09 474.757V454.457H1206.53V506.257H1200.09V499.047C1198.83 501.334 1196.97 503.224 1194.49 504.717C1192.02 506.164 1189.13 506.887 1185.81 506.887C1182.41 506.887 1179.3 506.047 1176.5 504.367C1173.75 502.687 1171.58 500.33 1169.99 497.297C1168.41 494.264 1167.61 490.81 1167.61 486.937ZM1200.09 487.007C1200.09 484.114 1199.51 481.594 1198.34 479.447C1197.18 477.3 1195.59 475.667 1193.58 474.547C1191.62 473.38 1189.45 472.797 1187.07 472.797C1184.69 472.797 1182.52 473.357 1180.56 474.477C1178.6 475.597 1177.04 477.23 1175.87 479.377C1174.71 481.524 1174.12 484.044 1174.12 486.937C1174.12 489.877 1174.71 492.444 1175.87 494.637C1177.04 496.784 1178.6 498.44 1180.56 499.607C1182.52 500.727 1184.69 501.287 1187.07 501.287C1189.45 501.287 1191.62 500.727 1193.58 499.607C1195.59 498.44 1197.18 496.784 1198.34 494.637C1199.51 492.444 1200.09 489.9 1200.09 487.007ZM1234.03 506.887C1230.43 506.887 1227.17 506.07 1224.23 504.437C1221.33 502.804 1219.05 500.494 1217.37 497.507C1215.73 494.474 1214.92 490.974 1214.92 487.007C1214.92 483.087 1215.76 479.634 1217.44 476.647C1219.16 473.614 1221.5 471.304 1224.44 469.717C1227.38 468.084 1230.67 467.267 1234.31 467.267C1237.95 467.267 1241.24 468.084 1244.18 469.717C1247.12 471.304 1249.43 473.59 1251.11 476.577C1252.83 479.564 1253.7 483.04 1253.7 487.007C1253.7 490.974 1252.81 494.474 1251.04 497.507C1249.31 500.494 1246.95 502.804 1243.97 504.437C1240.98 506.07 1237.67 506.887 1234.03 506.887ZM1234.03 501.287C1236.31 501.287 1238.46 500.75 1240.47 499.677C1242.47 498.604 1244.08 496.994 1245.3 494.847C1246.56 492.7 1247.19 490.087 1247.19 487.007C1247.19 483.927 1246.58 481.314 1245.37 479.167C1244.15 477.02 1242.57 475.434 1240.61 474.407C1238.65 473.334 1236.52 472.797 1234.24 472.797C1231.9 472.797 1229.76 473.334 1227.8 474.407C1225.88 475.434 1224.34 477.02 1223.18 479.167C1222.01 481.314 1221.43 483.927 1221.43 487.007C1221.43 490.134 1221.99 492.77 1223.11 494.917C1224.27 497.064 1225.81 498.674 1227.73 499.747C1229.64 500.774 1231.74 501.287 1234.03 501.287ZM1296.34 473.147H1288.29V506.257H1281.92V473.147H1276.95V467.897H1281.92V465.167C1281.92 460.874 1283.02 457.747 1285.21 455.787C1287.45 453.78 1291.02 452.777 1295.92 452.777V458.097C1293.12 458.097 1291.14 458.657 1289.97 459.777C1288.85 460.85 1288.29 462.647 1288.29 465.167V467.897H1296.34V473.147ZM1310.14 467.897V506.257H1303.77V467.897H1310.14ZM1313.78 457.047L1298.87 465.027V460.267L1313.78 451.517V457.047ZM1334.58 506.887C1331.64 506.887 1329 506.397 1326.67 505.417C1324.33 504.39 1322.49 502.99 1321.14 501.217C1319.78 499.397 1319.04 497.32 1318.9 494.987H1325.48C1325.66 496.9 1326.55 498.464 1328.14 499.677C1329.77 500.89 1331.89 501.497 1334.51 501.497C1336.93 501.497 1338.85 500.96 1340.25 499.887C1341.65 498.814 1342.35 497.46 1342.35 495.827C1342.35 494.147 1341.6 492.91 1340.11 492.117C1338.61 491.277 1336.3 490.46 1333.18 489.667C1330.33 488.92 1328 488.174 1326.18 487.427C1324.4 486.634 1322.86 485.49 1321.56 483.997C1320.3 482.457 1319.67 480.45 1319.67 477.977C1319.67 476.017 1320.25 474.22 1321.42 472.587C1322.58 470.954 1324.24 469.67 1326.39 468.737C1328.53 467.757 1330.98 467.267 1333.74 467.267C1337.98 467.267 1341.41 468.34 1344.03 470.487C1346.64 472.634 1348.04 475.574 1348.23 479.307H1341.86C1341.72 477.3 1340.9 475.69 1339.41 474.477C1337.96 473.264 1336 472.657 1333.53 472.657C1331.24 472.657 1329.42 473.147 1328.07 474.127C1326.71 475.107 1326.04 476.39 1326.04 477.977C1326.04 479.237 1326.43 480.287 1327.23 481.127C1328.07 481.92 1329.09 482.574 1330.31 483.087C1331.57 483.554 1333.29 484.09 1335.49 484.697C1338.24 485.444 1340.48 486.19 1342.21 486.937C1343.93 487.637 1345.4 488.71 1346.62 490.157C1347.88 491.604 1348.53 493.494 1348.58 495.827C1348.58 497.927 1347.99 499.817 1346.83 501.497C1345.66 503.177 1344 504.507 1341.86 505.487C1339.76 506.42 1337.33 506.887 1334.58 506.887ZM1360.86 461.667C1359.65 461.667 1358.62 461.247 1357.78 460.407C1356.94 459.567 1356.52 458.54 1356.52 457.327C1356.52 456.114 1356.94 455.087 1357.78 454.247C1358.62 453.407 1359.65 452.987 1360.86 452.987C1362.03 452.987 1363.01 453.407 1363.8 454.247C1364.64 455.087 1365.06 456.114 1365.06 457.327C1365.06 458.54 1364.64 459.567 1363.8 460.407C1363.01 461.247 1362.03 461.667 1360.86 461.667ZM1363.94 467.897V506.257H1357.57V467.897H1363.94ZM1372.42 487.007C1372.42 483.04 1373.21 479.587 1374.8 476.647C1376.38 473.66 1378.58 471.35 1381.38 469.717C1384.22 468.084 1387.47 467.267 1391.11 467.267C1395.82 467.267 1399.69 468.41 1402.73 470.697C1405.81 472.984 1407.84 476.157 1408.82 480.217H1401.96C1401.3 477.884 1400.02 476.04 1398.11 474.687C1396.24 473.334 1393.91 472.657 1391.11 472.657C1387.47 472.657 1384.53 473.917 1382.29 476.437C1380.05 478.91 1378.93 482.434 1378.93 487.007C1378.93 491.627 1380.05 495.197 1382.29 497.717C1384.53 500.237 1387.47 501.497 1391.11 501.497C1393.91 501.497 1396.24 500.844 1398.11 499.537C1399.97 498.23 1401.26 496.364 1401.96 493.937H1408.82C1407.79 497.857 1405.74 501.007 1402.66 503.387C1399.58 505.72 1395.73 506.887 1391.11 506.887C1387.47 506.887 1384.22 506.07 1381.38 504.437C1378.58 502.804 1376.38 500.494 1374.8 497.507C1373.21 494.52 1372.42 491.02 1372.42 487.007ZM1434.05 506.887C1430.45 506.887 1427.19 506.07 1424.25 504.437C1421.35 502.804 1419.07 500.494 1417.39 497.507C1415.75 494.474 1414.94 490.974 1414.94 487.007C1414.94 483.087 1415.78 479.634 1417.46 476.647C1419.18 473.614 1421.52 471.304 1424.46 469.717C1427.4 468.084 1430.69 467.267 1434.33 467.267C1437.97 467.267 1441.26 468.084 1444.2 469.717C1447.14 471.304 1449.45 473.59 1451.13 476.577C1452.85 479.564 1453.72 483.04 1453.72 487.007C1453.72 490.974 1452.83 494.474 1451.06 497.507C1449.33 500.494 1446.97 502.804 1443.99 504.437C1441 506.07 1437.69 506.887 1434.05 506.887ZM1434.05 501.287C1436.33 501.287 1438.48 500.75 1440.49 499.677C1442.49 498.604 1444.1 496.994 1445.32 494.847C1446.58 492.7 1447.21 490.087 1447.21 487.007C1447.21 483.927 1446.6 481.314 1445.39 479.167C1444.17 477.02 1442.59 475.434 1440.63 474.407C1438.67 473.334 1436.54 472.797 1434.26 472.797C1431.92 472.797 1429.78 473.334 1427.82 474.407C1425.9 475.434 1424.36 477.02 1423.2 479.167C1422.03 481.314 1421.45 483.927 1421.45 487.007C1421.45 490.134 1422.01 492.77 1423.13 494.917C1424.29 497.064 1425.83 498.674 1427.75 499.747C1429.66 500.774 1431.76 501.287 1434.05 501.287ZM1513.79 467.897L1490.69 524.317H1484.11L1491.67 505.837L1476.2 467.897H1483.27L1495.31 498.977L1507.21 467.897H1513.79ZM1545.23 454.457V506.257H1538.86V454.457H1545.23ZM1553.71 486.937C1553.71 483.017 1554.5 479.587 1556.09 476.647C1557.67 473.66 1559.84 471.35 1562.6 469.717C1565.4 468.084 1568.5 467.267 1571.91 467.267C1575.27 467.267 1578.18 467.99 1580.66 469.437C1583.13 470.884 1584.97 472.704 1586.19 474.897V467.897H1592.63V506.257H1586.19V499.117C1584.93 501.357 1583.04 503.224 1580.52 504.717C1578.04 506.164 1575.15 506.887 1571.84 506.887C1568.43 506.887 1565.35 506.047 1562.6 504.367C1559.84 502.687 1557.67 500.33 1556.09 497.297C1554.5 494.264 1553.71 490.81 1553.71 486.937ZM1586.19 487.007C1586.19 484.114 1585.6 481.594 1584.44 479.447C1583.27 477.3 1581.68 475.667 1579.68 474.547C1577.72 473.38 1575.55 472.797 1573.17 472.797C1570.79 472.797 1568.62 473.357 1566.66 474.477C1564.7 475.597 1563.13 477.23 1561.97 479.377C1560.8 481.524 1560.22 484.044 1560.22 486.937C1560.22 489.877 1560.8 492.444 1561.97 494.637C1563.13 496.784 1564.7 498.44 1566.66 499.607C1568.62 500.727 1570.79 501.287 1573.17 501.287C1575.55 501.287 1577.72 500.727 1579.68 499.607C1581.68 498.44 1583.27 496.784 1584.44 494.637C1585.6 492.444 1586.19 489.9 1586.19 487.007ZM583.121 572.197C587.787 572.197 591.567 573.62 594.461 576.467C597.354 579.267 598.801 583.327 598.801 588.647V611.257H592.501V589.557C592.501 585.73 591.544 582.814 589.631 580.807C587.717 578.754 585.104 577.727 581.791 577.727C578.431 577.727 575.747 578.777 573.741 580.877C571.781 582.977 570.801 586.034 570.801 590.047V611.257H564.431V572.897H570.801V578.357C572.061 576.397 573.764 574.88 575.911 573.807C578.104 572.734 580.507 572.197 583.121 572.197ZM644.206 590.607C644.206 591.82 644.136 593.104 643.996 594.457H613.336C613.569 598.237 614.853 601.2 617.186 603.347C619.566 605.447 622.436 606.497 625.796 606.497C628.549 606.497 630.836 605.867 632.656 604.607C634.523 603.3 635.829 601.574 636.576 599.427H643.436C642.409 603.114 640.356 606.124 637.276 608.457C634.196 610.744 630.369 611.887 625.796 611.887C622.156 611.887 618.889 611.07 615.996 609.437C613.149 607.804 610.909 605.494 609.276 602.507C607.643 599.474 606.826 595.974 606.826 592.007C606.826 588.04 607.619 584.564 609.206 581.577C610.793 578.59 613.009 576.304 615.856 574.717C618.749 573.084 622.063 572.267 625.796 572.267C629.436 572.267 632.656 573.06 635.456 574.647C638.256 576.234 640.403 578.427 641.896 581.227C643.436 583.98 644.206 587.107 644.206 590.607ZM637.626 589.277C637.626 586.85 637.089 584.774 636.016 583.047C634.943 581.274 633.473 579.944 631.606 579.057C629.786 578.124 627.756 577.657 625.516 577.657C622.296 577.657 619.543 578.684 617.256 580.737C615.016 582.79 613.733 585.637 613.406 589.277H637.626ZM686.634 572.897V611.257H680.264V605.587C679.051 607.547 677.347 609.087 675.154 610.207C673.007 611.28 670.627 611.817 668.014 611.817C665.027 611.817 662.344 611.21 659.964 609.997C657.584 608.737 655.694 606.87 654.294 604.397C652.941 601.924 652.264 598.914 652.264 595.367V572.897H658.564V594.527C658.564 598.307 659.521 601.224 661.434 603.277C663.347 605.284 665.961 606.287 669.274 606.287C672.681 606.287 675.364 605.237 677.324 603.137C679.284 601.037 680.264 597.98 680.264 593.967V572.897H686.634ZM703.76 579.127C704.88 576.934 706.466 575.23 708.52 574.017C710.62 572.804 713.163 572.197 716.15 572.197V578.777H714.47C707.33 578.777 703.76 582.65 703.76 590.397V611.257H697.39V572.897H703.76V579.127ZM740.233 611.887C736.639 611.887 733.373 611.07 730.433 609.437C727.539 607.804 725.253 605.494 723.573 602.507C721.939 599.474 721.123 595.974 721.123 592.007C721.123 588.087 721.963 584.634 723.643 581.647C725.369 578.614 727.703 576.304 730.643 574.717C733.583 573.084 736.873 572.267 740.513 572.267C744.153 572.267 747.443 573.084 750.383 574.717C753.323 576.304 755.633 578.59 757.313 581.577C759.039 584.564 759.903 588.04 759.903 592.007C759.903 595.974 759.016 599.474 757.243 602.507C755.516 605.494 753.159 607.804 750.173 609.437C747.186 611.07 743.873 611.887 740.233 611.887ZM740.233 606.287C742.519 606.287 744.666 605.75 746.673 604.677C748.679 603.604 750.289 601.994 751.503 599.847C752.763 597.7 753.393 595.087 753.393 592.007C753.393 588.927 752.786 586.314 751.573 584.167C750.359 582.02 748.773 580.434 746.813 579.407C744.853 578.334 742.729 577.797 740.443 577.797C738.109 577.797 735.963 578.334 734.003 579.407C732.089 580.434 730.549 582.02 729.383 584.167C728.216 586.314 727.633 588.927 727.633 592.007C727.633 595.134 728.193 597.77 729.313 599.917C730.479 602.064 732.019 603.674 733.933 604.747C735.846 605.774 737.946 606.287 740.233 606.287ZM793.31 579.967C794.57 577.774 796.437 575.954 798.91 574.507C801.43 573.013 804.347 572.267 807.66 572.267C811.067 572.267 814.147 573.084 816.9 574.717C819.7 576.35 821.894 578.66 823.48 581.647C825.067 584.587 825.86 588.017 825.86 591.937C825.86 595.81 825.067 599.264 823.48 602.297C821.894 605.33 819.7 607.687 816.9 609.367C814.147 611.047 811.067 611.887 807.66 611.887C804.394 611.887 801.5 611.164 798.98 609.717C796.507 608.224 794.617 606.38 793.31 604.187V629.457H786.94V572.897H793.31V579.967ZM819.35 591.937C819.35 589.044 818.767 586.524 817.6 584.377C816.434 582.23 814.847 580.597 812.84 579.477C810.88 578.357 808.71 577.797 806.33 577.797C803.997 577.797 801.827 578.38 799.82 579.547C797.86 580.667 796.274 582.324 795.06 584.517C793.894 586.664 793.31 589.16 793.31 592.007C793.31 594.9 793.894 597.444 795.06 599.637C796.274 601.784 797.86 603.44 799.82 604.607C801.827 605.727 803.997 606.287 806.33 606.287C808.71 606.287 810.88 605.727 812.84 604.607C814.847 603.44 816.434 601.784 817.6 599.637C818.767 597.444 819.35 594.877 819.35 591.937ZM840.615 559.457V611.257H834.245V559.457H840.615ZM849.092 591.937C849.092 588.017 849.885 584.587 851.472 581.647C853.058 578.66 855.228 576.35 857.982 574.717C860.782 573.084 863.885 572.267 867.292 572.267C870.652 572.267 873.568 572.99 876.042 574.437C878.515 575.884 880.358 577.704 881.572 579.897V572.897H888.012V611.257H881.572V604.117C880.312 606.357 878.422 608.224 875.902 609.717C873.428 611.164 870.535 611.887 867.222 611.887C863.815 611.887 860.735 611.047 857.982 609.367C855.228 607.687 853.058 605.33 851.472 602.297C849.885 599.264 849.092 595.81 849.092 591.937ZM881.572 592.007C881.572 589.114 880.988 586.594 879.822 584.447C878.655 582.3 877.068 580.667 875.062 579.547C873.102 578.38 870.932 577.797 868.552 577.797C866.172 577.797 864.002 578.357 862.042 579.477C860.082 580.597 858.518 582.23 857.352 584.377C856.185 586.524 855.602 589.044 855.602 591.937C855.602 594.877 856.185 597.444 857.352 599.637C858.518 601.784 860.082 603.44 862.042 604.607C864.002 605.727 866.172 606.287 868.552 606.287C870.932 606.287 873.102 605.727 875.062 604.607C877.068 603.44 878.655 601.784 879.822 599.637C880.988 597.444 881.572 594.9 881.572 592.007ZM912.356 611.887C909.416 611.887 906.78 611.397 904.446 610.417C902.113 609.39 900.27 607.99 898.916 606.217C897.563 604.397 896.816 602.32 896.676 599.987H903.256C903.443 601.9 904.33 603.464 905.916 604.677C907.55 605.89 909.673 606.497 912.286 606.497C914.713 606.497 916.626 605.96 918.026 604.887C919.426 603.814 920.126 602.46 920.126 600.827C920.126 599.147 919.38 597.91 917.886 597.117C916.393 596.277 914.083 595.46 910.956 594.667C908.11 593.92 905.776 593.174 903.956 592.427C902.183 591.634 900.643 590.49 899.336 588.997C898.076 587.457 897.446 585.45 897.446 582.977C897.446 581.017 898.03 579.22 899.196 577.587C900.363 575.954 902.02 574.67 904.166 573.737C906.313 572.757 908.763 572.267 911.516 572.267C915.763 572.267 919.193 573.34 921.806 575.487C924.42 577.634 925.82 580.574 926.006 584.307H919.636C919.496 582.3 918.68 580.69 917.186 579.477C915.74 578.264 913.78 577.657 911.306 577.657C909.02 577.657 907.2 578.147 905.846 579.127C904.493 580.107 903.816 581.39 903.816 582.977C903.816 584.237 904.213 585.287 905.006 586.127C905.846 586.92 906.873 587.574 908.086 588.087C909.346 588.554 911.073 589.09 913.266 589.697C916.02 590.444 918.26 591.19 919.986 591.937C921.713 592.637 923.183 593.71 924.396 595.157C925.656 596.604 926.31 598.494 926.356 600.827C926.356 602.927 925.773 604.817 924.606 606.497C923.44 608.177 921.783 609.507 919.636 610.487C917.536 611.42 915.11 611.887 912.356 611.887ZM943.118 578.147V600.757C943.118 602.624 943.515 603.954 944.308 604.747C945.102 605.494 946.478 605.867 948.438 605.867H953.128V611.257H947.388C943.842 611.257 941.182 610.44 939.408 608.807C937.635 607.174 936.748 604.49 936.748 600.757V578.147H931.778V572.897H936.748V563.237H943.118V572.897H953.128V578.147H943.118ZM964.137 566.667C962.923 566.667 961.897 566.247 961.057 565.407C960.217 564.567 959.797 563.54 959.797 562.327C959.797 561.114 960.217 560.087 961.057 559.247C961.897 558.407 962.923 557.987 964.137 557.987C965.303 557.987 966.283 558.407 967.077 559.247C967.917 560.087 968.337 561.114 968.337 562.327C968.337 563.54 967.917 564.567 967.077 565.407C966.283 566.247 965.303 566.667 964.137 566.667ZM967.217 572.897V611.257H960.847V572.897H967.217ZM975.693 592.007C975.693 588.04 976.486 584.587 978.073 581.647C979.66 578.66 981.853 576.35 984.653 574.717C987.5 573.084 990.743 572.267 994.383 572.267C999.096 572.267 1002.97 573.41 1006 575.697C1009.08 577.984 1011.11 581.157 1012.09 585.217H1005.23C1004.58 582.884 1003.3 581.04 1001.38 579.687C999.516 578.334 997.183 577.657 994.383 577.657C990.743 577.657 987.803 578.917 985.563 581.437C983.323 583.91 982.203 587.434 982.203 592.007C982.203 596.627 983.323 600.197 985.563 602.717C987.803 605.237 990.743 606.497 994.383 606.497C997.183 606.497 999.516 605.844 1001.38 604.537C1003.25 603.23 1004.53 601.364 1005.23 598.937H1012.09C1011.07 602.857 1009.01 606.007 1005.93 608.387C1002.85 610.72 999.003 611.887 994.383 611.887C990.743 611.887 987.5 611.07 984.653 609.437C981.853 607.804 979.66 605.494 978.073 602.507C976.486 599.52 975.693 596.02 975.693 592.007ZM1023.88 566.667C1022.67 566.667 1021.64 566.247 1020.8 565.407C1019.96 564.567 1019.54 563.54 1019.54 562.327C1019.54 561.114 1019.96 560.087 1020.8 559.247C1021.64 558.407 1022.67 557.987 1023.88 557.987C1025.05 557.987 1026.03 558.407 1026.82 559.247C1027.66 560.087 1028.08 561.114 1028.08 562.327C1028.08 563.54 1027.66 564.567 1026.82 565.407C1026.03 566.247 1025.05 566.667 1023.88 566.667ZM1026.96 572.897V611.257H1020.59V572.897H1026.96ZM1035.44 591.937C1035.44 588.017 1036.23 584.587 1037.82 581.647C1039.41 578.66 1041.58 576.35 1044.33 574.717C1047.13 573.084 1050.26 572.267 1053.71 572.267C1056.7 572.267 1059.47 572.967 1062.04 574.367C1064.61 575.72 1066.57 577.517 1067.92 579.757V559.457H1074.36V611.257H1067.92V604.047C1066.66 606.334 1064.79 608.224 1062.32 609.717C1059.85 611.164 1056.95 611.887 1053.64 611.887C1050.23 611.887 1047.13 611.047 1044.33 609.367C1041.58 607.687 1039.41 605.33 1037.82 602.297C1036.23 599.264 1035.44 595.81 1035.44 591.937ZM1067.92 592.007C1067.92 589.114 1067.34 586.594 1066.17 584.447C1065 582.3 1063.42 580.667 1061.41 579.547C1059.45 578.38 1057.28 577.797 1054.9 577.797C1052.52 577.797 1050.35 578.357 1048.39 579.477C1046.43 580.597 1044.87 582.23 1043.7 584.377C1042.53 586.524 1041.95 589.044 1041.95 591.937C1041.95 594.877 1042.53 597.444 1043.7 599.637C1044.87 601.784 1046.43 603.44 1048.39 604.607C1050.35 605.727 1052.52 606.287 1054.9 606.287C1057.28 606.287 1059.45 605.727 1061.41 604.607C1063.42 603.44 1065 601.784 1066.17 599.637C1067.34 597.444 1067.92 594.9 1067.92 592.007ZM1082.74 591.937C1082.74 588.017 1083.54 584.587 1085.12 581.647C1086.71 578.66 1088.88 576.35 1091.63 574.717C1094.43 573.084 1097.54 572.267 1100.94 572.267C1104.3 572.267 1107.22 572.99 1109.69 574.437C1112.17 575.884 1114.01 577.704 1115.22 579.897V572.897H1121.66V611.257H1115.22V604.117C1113.96 606.357 1112.07 608.224 1109.55 609.717C1107.08 611.164 1104.19 611.887 1100.87 611.887C1097.47 611.887 1094.39 611.047 1091.63 609.367C1088.88 607.687 1086.71 605.33 1085.12 602.297C1083.54 599.264 1082.74 595.81 1082.74 591.937ZM1115.22 592.007C1115.22 589.114 1114.64 586.594 1113.47 584.447C1112.31 582.3 1110.72 580.667 1108.71 579.547C1106.75 578.38 1104.58 577.797 1102.2 577.797C1099.82 577.797 1097.65 578.357 1095.69 579.477C1093.73 580.597 1092.17 582.23 1091 584.377C1089.84 586.524 1089.25 589.044 1089.25 591.937C1089.25 594.877 1089.84 597.444 1091 599.637C1092.17 601.784 1093.73 603.44 1095.69 604.607C1097.65 605.727 1099.82 606.287 1102.2 606.287C1104.58 606.287 1106.75 605.727 1108.71 604.607C1110.72 603.44 1112.31 601.784 1113.47 599.637C1114.64 597.444 1115.22 594.9 1115.22 592.007ZM1130.05 591.937C1130.05 588.017 1130.84 584.587 1132.43 581.647C1134.02 578.66 1136.19 576.35 1138.94 574.717C1141.74 573.084 1144.87 572.267 1148.32 572.267C1151.31 572.267 1154.08 572.967 1156.65 574.367C1159.22 575.72 1161.18 577.517 1162.53 579.757V559.457H1168.97V611.257H1162.53V604.047C1161.27 606.334 1159.4 608.224 1156.93 609.717C1154.46 611.164 1151.56 611.887 1148.25 611.887C1144.84 611.887 1141.74 611.047 1138.94 609.367C1136.19 607.687 1134.02 605.33 1132.43 602.297C1130.84 599.264 1130.05 595.81 1130.05 591.937ZM1162.53 592.007C1162.53 589.114 1161.95 586.594 1160.78 584.447C1159.61 582.3 1158.03 580.667 1156.02 579.547C1154.06 578.38 1151.89 577.797 1149.51 577.797C1147.13 577.797 1144.96 578.357 1143 579.477C1141.04 580.597 1139.48 582.23 1138.31 584.377C1137.14 586.524 1136.56 589.044 1136.56 591.937C1136.56 594.877 1137.14 597.444 1138.31 599.637C1139.48 601.784 1141.04 603.44 1143 604.607C1144.96 605.727 1147.13 606.287 1149.51 606.287C1151.89 606.287 1154.06 605.727 1156.02 604.607C1158.03 603.44 1159.61 601.784 1160.78 599.637C1161.95 597.444 1162.53 594.9 1162.53 592.007ZM1181.76 611.677C1180.55 611.677 1179.52 611.257 1178.68 610.417C1177.84 609.577 1177.42 608.55 1177.42 607.337C1177.42 606.124 1177.84 605.097 1178.68 604.257C1179.52 603.417 1180.55 602.997 1181.76 602.997C1182.93 602.997 1183.91 603.417 1184.7 604.257C1185.54 605.097 1185.96 606.124 1185.96 607.337C1185.96 608.55 1185.54 609.577 1184.7 610.417C1183.91 611.257 1182.93 611.677 1181.76 611.677Z" fill="#334155"/>
<path d="M129.13 368.357H121.99L128.71 352.467H133.26L129.13 368.357ZM140.47 368.357H133.33L140.05 352.467H144.6L140.47 368.357ZM158.662 357.647V373.957H176.442V379.207H158.662V396.007H178.542V401.257H152.292V352.397H178.542V357.647H158.662ZM194.551 349.457V401.257H188.181V349.457H194.551ZM273.559 352.817V401.257H267.189V365.137L251.089 401.257H246.609L230.439 365.067V401.257H224.069V352.817H230.929L248.849 392.857L266.769 352.817H273.559ZM319.362 380.607C319.362 381.82 319.292 383.104 319.152 384.457H288.492C288.726 388.237 290.009 391.2 292.342 393.347C294.722 395.447 297.592 396.497 300.952 396.497C303.706 396.497 305.992 395.867 307.812 394.607C309.679 393.3 310.986 391.574 311.732 389.427H318.592C317.566 393.114 315.512 396.124 312.432 398.457C309.352 400.744 305.526 401.887 300.952 401.887C297.312 401.887 294.046 401.07 291.152 399.437C288.306 397.804 286.066 395.494 284.432 392.507C282.799 389.474 281.982 385.974 281.982 382.007C281.982 378.04 282.776 374.564 284.362 371.577C285.949 368.59 288.166 366.304 291.012 364.717C293.906 363.084 297.219 362.267 300.952 362.267C304.592 362.267 307.812 363.06 310.612 364.647C313.412 366.234 315.559 368.427 317.052 371.227C318.592 373.98 319.362 377.107 319.362 380.607ZM312.782 379.277C312.782 376.85 312.246 374.774 311.172 373.047C310.099 371.274 308.629 369.944 306.762 369.057C304.942 368.124 302.912 367.657 300.672 367.657C297.452 367.657 294.699 368.684 292.412 370.737C290.172 372.79 288.889 375.637 288.562 379.277H312.782ZM307.532 352.047L292.622 360.027V355.267L307.532 346.517V352.047ZM335.54 368.147V390.757C335.54 392.624 335.937 393.954 336.73 394.747C337.524 395.494 338.9 395.867 340.86 395.867H345.55V401.257H339.81C336.264 401.257 333.604 400.44 331.83 398.807C330.057 397.174 329.17 394.49 329.17 390.757V368.147H324.2V362.897H329.17V353.237H335.54V362.897H345.55V368.147H335.54ZM369.998 401.887C366.405 401.887 363.138 401.07 360.198 399.437C357.305 397.804 355.018 395.494 353.338 392.507C351.705 389.474 350.888 385.974 350.888 382.007C350.888 378.087 351.728 374.634 353.408 371.647C355.135 368.614 357.468 366.304 360.408 364.717C363.348 363.084 366.638 362.267 370.278 362.267C373.918 362.267 377.208 363.084 380.148 364.717C383.088 366.304 385.398 368.59 387.078 371.577C388.805 374.564 389.668 378.04 389.668 382.007C389.668 385.974 388.782 389.474 387.008 392.507C385.282 395.494 382.925 397.804 379.938 399.437C376.952 401.07 373.638 401.887 369.998 401.887ZM369.998 396.287C372.285 396.287 374.432 395.75 376.438 394.677C378.445 393.604 380.055 391.994 381.268 389.847C382.528 387.7 383.158 385.087 383.158 382.007C383.158 378.927 382.552 376.314 381.338 374.167C380.125 372.02 378.538 370.434 376.578 369.407C374.618 368.334 372.495 367.797 370.208 367.797C367.875 367.797 365.728 368.334 363.768 369.407C361.855 370.434 360.315 372.02 359.148 374.167C357.982 376.314 357.398 378.927 357.398 382.007C357.398 385.134 357.958 387.77 359.078 389.917C360.245 392.064 361.785 393.674 363.698 394.747C365.612 395.774 367.712 396.287 369.998 396.287ZM395.664 381.937C395.664 378.017 396.457 374.587 398.044 371.647C399.63 368.66 401.8 366.35 404.554 364.717C407.354 363.084 410.48 362.267 413.934 362.267C416.92 362.267 419.697 362.967 422.264 364.367C424.83 365.72 426.79 367.517 428.144 369.757V349.457H434.584V401.257H428.144V394.047C426.884 396.334 425.017 398.224 422.544 399.717C420.07 401.164 417.177 401.887 413.864 401.887C410.457 401.887 407.354 401.047 404.554 399.367C401.8 397.687 399.63 395.33 398.044 392.297C396.457 389.264 395.664 385.81 395.664 381.937ZM428.144 382.007C428.144 379.114 427.56 376.594 426.394 374.447C425.227 372.3 423.64 370.667 421.634 369.547C419.674 368.38 417.504 367.797 415.124 367.797C412.744 367.797 410.574 368.357 408.614 369.477C406.654 370.597 405.09 372.23 403.924 374.377C402.757 376.524 402.174 379.044 402.174 381.937C402.174 384.877 402.757 387.444 403.924 389.637C405.09 391.784 406.654 393.44 408.614 394.607C410.574 395.727 412.744 396.287 415.124 396.287C417.504 396.287 419.674 395.727 421.634 394.607C423.64 393.44 425.227 391.784 426.394 389.637C427.56 387.444 428.144 384.9 428.144 382.007ZM462.078 401.887C458.485 401.887 455.218 401.07 452.278 399.437C449.385 397.804 447.098 395.494 445.418 392.507C443.785 389.474 442.968 385.974 442.968 382.007C442.968 378.087 443.808 374.634 445.488 371.647C447.215 368.614 449.548 366.304 452.488 364.717C455.428 363.084 458.718 362.267 462.358 362.267C465.998 362.267 469.288 363.084 472.228 364.717C475.168 366.304 477.478 368.59 479.158 371.577C480.885 374.564 481.748 378.04 481.748 382.007C481.748 385.974 480.862 389.474 479.088 392.507C477.362 395.494 475.005 397.804 472.018 399.437C469.032 401.07 465.718 401.887 462.078 401.887ZM462.078 396.287C464.365 396.287 466.512 395.75 468.518 394.677C470.525 393.604 472.135 391.994 473.348 389.847C474.608 387.7 475.238 385.087 475.238 382.007C475.238 378.927 474.632 376.314 473.418 374.167C472.205 372.02 470.618 370.434 468.658 369.407C466.698 368.334 464.575 367.797 462.288 367.797C459.955 367.797 457.808 368.334 455.848 369.407C453.935 370.434 452.395 372.02 451.228 374.167C450.062 376.314 449.478 378.927 449.478 382.007C449.478 385.134 450.038 387.77 451.158 389.917C452.325 392.064 453.865 393.674 455.778 394.747C457.692 395.774 459.792 396.287 462.078 396.287ZM491.104 352.467H498.174L491.454 368.357H486.974L491.104 352.467ZM502.444 352.467H509.514L502.794 368.357H498.244L502.444 352.467ZM564.218 390.407H542.938L539.018 401.257H532.298L549.938 352.747H557.288L574.858 401.257H568.138L564.218 390.407ZM562.398 385.227L553.578 360.587L544.758 385.227H562.398ZM580.166 381.937C580.166 378.017 580.959 374.587 582.546 371.647C584.132 368.66 586.302 366.35 589.056 364.717C591.856 363.084 594.982 362.267 598.436 362.267C601.422 362.267 604.199 362.967 606.766 364.367C609.332 365.72 611.292 367.517 612.646 369.757V349.457H619.086V401.257H612.646V394.047C611.386 396.334 609.519 398.224 607.046 399.717C604.572 401.164 601.679 401.887 598.366 401.887C594.959 401.887 591.856 401.047 589.056 399.367C586.302 397.687 584.132 395.33 582.546 392.297C580.959 389.264 580.166 385.81 580.166 381.937ZM612.646 382.007C612.646 379.114 612.062 376.594 610.896 374.447C609.729 372.3 608.142 370.667 606.136 369.547C604.176 368.38 602.006 367.797 599.626 367.797C597.246 367.797 595.076 368.357 593.116 369.477C591.156 370.597 589.592 372.23 588.426 374.377C587.259 376.524 586.676 379.044 586.676 381.937C586.676 384.877 587.259 387.444 588.426 389.637C589.592 391.784 591.156 393.44 593.116 394.607C595.076 395.727 597.246 396.287 599.626 396.287C602.006 396.287 604.176 395.727 606.136 394.607C608.142 393.44 609.729 391.784 610.896 389.637C612.062 387.444 612.646 384.9 612.646 382.007ZM663.87 362.897V401.257H657.5V395.587C656.287 397.547 654.584 399.087 652.39 400.207C650.244 401.28 647.864 401.817 645.25 401.817C642.264 401.817 639.58 401.21 637.2 399.997C634.82 398.737 632.93 396.87 631.53 394.397C630.177 391.924 629.5 388.914 629.5 385.367V362.897H635.8V384.527C635.8 388.307 636.757 391.224 638.67 393.277C640.584 395.284 643.197 396.287 646.51 396.287C649.917 396.287 652.6 395.237 654.56 393.137C656.52 391.037 657.5 387.98 657.5 383.967V362.897H663.87ZM680.996 349.457V401.257H674.626V349.457H680.996ZM741.342 352.817V401.257H734.972V365.137L718.872 401.257H714.392L698.222 365.067V401.257H691.852V352.817H698.712L716.632 392.857L734.552 352.817H741.342ZM749.765 381.937C749.765 378.017 750.559 374.587 752.145 371.647C753.732 368.66 755.902 366.35 758.655 364.717C761.455 363.084 764.559 362.267 767.965 362.267C771.325 362.267 774.242 362.99 776.715 364.437C779.189 365.884 781.032 367.704 782.245 369.897V362.897H788.685V401.257H782.245V394.117C780.985 396.357 779.095 398.224 776.575 399.717C774.102 401.164 771.209 401.887 767.895 401.887C764.489 401.887 761.409 401.047 758.655 399.367C755.902 397.687 753.732 395.33 752.145 392.297C750.559 389.264 749.765 385.81 749.765 381.937ZM782.245 382.007C782.245 379.114 781.662 376.594 780.495 374.447C779.329 372.3 777.742 370.667 775.735 369.547C773.775 368.38 771.605 367.797 769.225 367.797C766.845 367.797 764.675 368.357 762.715 369.477C760.755 370.597 759.192 372.23 758.025 374.377C756.859 376.524 756.275 379.044 756.275 381.937C756.275 384.877 756.859 387.444 758.025 389.637C759.192 391.784 760.755 393.44 762.715 394.607C764.675 395.727 766.845 396.287 769.225 396.287C771.605 396.287 773.775 395.727 775.735 394.607C777.742 393.44 779.329 391.784 780.495 389.637C781.662 387.444 782.245 384.9 782.245 382.007ZM806.03 392.437L798.19 411.267H793.92L799.03 392.437H806.03Z" fill="white"/>
</g>
</g>
<defs>
<filter id="filter0_d_1731_31" x="0.337891" y="0.868164" width="1747.4" height="864.776" filterUnits="userSpaceOnUse" color-interpolation-filters="sRGB">
<feFlood flood-opacity="0" result="BackgroundImageFix"/>
<feColorMatrix in="SourceAlpha" type="matrix" values="0 0 0 0 0 0 0 0 0 0 0 0 0 0 0 0 0 0 127 0" result="hardAlpha"/>
<feOffset dy="4"/>
<feGaussianBlur stdDeviation="5"/>
<feComposite in2="hardAlpha" operator="out"/>
<feColorMatrix type="matrix" values="0 0 0 0 0 0 0 0 0 0 0 0 0 0 0 0 0 0 0.25 0"/>
<feBlend mode="normal" in2="BackgroundImageFix" result="effect1_dropShadow_1731_31"/>
<feBlend mode="normal" in="SourceGraphic" in2="effect1_dropShadow_1731_31" result="shape"/>
</filter>
<filter id="filter1_d_1731_31" x="111.99" y="236.987" width="1520.41" height="406.47" filterUnits="userSpaceOnUse" color-interpolation-filters="sRGB">
<feFlood flood-opacity="0" result="BackgroundImageFix"/>
<feColorMatrix in="SourceAlpha" type="matrix" values="0 0 0 0 0 0 0 0 0 0 0 0 0 0 0 0 0 0 127 0" result="hardAlpha"/>
<feOffset dy="4"/>
<feGaussianBlur stdDeviation="5"/>
<feComposite in2="hardAlpha" operator="out"/>
<feColorMatrix type="matrix" values="0 0 0 0 0.2 0 0 0 0 0.254902 0 0 0 0 0.333333 0 0 0 0.25 0"/>
<feBlend mode="normal" in2="BackgroundImageFix" result="effect1_dropShadow_1731_31"/>
<feBlend mode="normal" in="SourceGraphic" in2="effect1_dropShadow_1731_31" result="shape"/>
</filter>
</defs>
</svg>
